<?xml version="1.0" encoding="UTF-8" standalone="no"?>
<!-- Creator: CorelDRAW -->

<svg
   xmlns:dc="http://purl.org/dc/elements/1.1/"
   xmlns:cc="http://creativecommons.org/ns#"
   xmlns:rdf="http://www.w3.org/1999/02/22-rdf-syntax-ns#"
   xmlns:svg="http://www.w3.org/2000/svg"
   xmlns="http://www.w3.org/2000/svg"
   xmlns:sodipodi="http://sodipodi.sourceforge.net/DTD/sodipodi-0.dtd"
   xmlns:inkscape="http://www.inkscape.org/namespaces/inkscape"
   xml:space="preserve"
   width="210mm"
   height="297mm"
   style="shape-rendering:geometricPrecision; text-rendering:geometricPrecision; image-rendering:optimizeQuality; fill-rule:evenodd; clip-rule:evenodd"
   viewBox="0 0 210 297"
   id="svg2"
   version="1.1"
   inkscape:version="0.91 r13725"
   sodipodi:docname="Logo GALPon sobre escuro.svg"><metadata
     id="metadata37"><rdf:RDF><cc:Work
         rdf:about=""><dc:format>image/svg+xml</dc:format><dc:type
           rdf:resource="http://purl.org/dc/dcmitype/StillImage" /><dc:title></dc:title></cc:Work></rdf:RDF></metadata><sodipodi:namedview
     pagecolor="#ffffff"
     bordercolor="#666666"
     borderopacity="1"
     objecttolerance="10"
     gridtolerance="10"
     guidetolerance="10"
     inkscape:pageopacity="0"
     inkscape:pageshadow="2"
     inkscape:window-width="832"
     inkscape:window-height="480"
     id="namedview35"
     showgrid="false"
     inkscape:zoom="0.23827348"
     inkscape:cx="-680.31496"
     inkscape:cy="517.78739"
     inkscape:window-x="0"
     inkscape:window-y="0"
     inkscape:window-maximized="0"
     inkscape:current-layer="svg2" /><defs
     id="defs4"><style
       type="text/css"
       id="style6"><![CDATA[
    .str0 {stroke:#1F1A17;stroke-width:0.2}
    .fil0 {fill:#1F1A17}
    .fil1 {fill:white}
   ]]></style></defs><g
     id="Capa_x0020_1"><metadata
       id="CorelCorpID_0Corel-Layer" /><rect
       class="fil0 str0"
       x="37.9248"
       y="74.8488"
       width="135.466"
       height="124.286"
       id="rect10" /><g
       id="_126918784"><path
         id="_126921280"
         class="fil1"
         d="M91.9856 182.27l-1.4914 0c-0.8205,0 -1.521,-0.0306 -1.5556,-0.0657 -0.0365,-0.0345 -0.0656,-8.3263 -0.0656,-12.836l0 -8.3828 3.1126 0 3.3465 -0.0079c0.4608,0.0058 0.9222,0.0617 1.2947,0.1739 1.615,0.4921 2.8499,1.9953 3.344,4.0774 0.1718,0.7178 0.197,1.0671 0.16,2.2597 -0.0365,1.1904 -0.083,1.5324 -0.3029,2.1998 -0.4979,1.5204 -1.5398,2.7362 -2.7866,3.3305 -0.5943,0.2859 -0.6985,0.3033 -1.7497,0.3033l-3.306 0 0 8.9478m2.591 -18.7161c-0.0049,0 -0.0098,0 -0.0147,0 -1.3526,0.0098 -2.2443,1.0305 -2.4894,2.8484 -0.1911,1.428 0.1755,3.0158 0.8667,3.7434 0.4342,0.4589 1.0106,0.6977 1.5986,0.6977 0.381,-0.0002 0.767,-0.1004 1.1222,-0.3059 0.8818,-0.5114 1.4223,-1.7829 1.4183,-3.3424 -0.0077,-2.1968 -1.0008,-3.6412 -2.5017,-3.6412z" /><path
         id="_126921208"
         class="fil1"
         d="M126.001 173.322l-3.0569 0 -0.0094 -4.2686c-0.008,-4.2648 -0.0001,-4.0059 -0.168,-4.4555 -0.197,-0.5232 -0.573,-0.8511 -1.1407,-0.9959 -0.1812,-0.0444 -0.2776,-0.0518 -0.658,-0.0538 -0.4668,0 -0.5849,0.0153 -0.9242,0.1235 -0.334,0.1057 -0.5884,0.2545 -0.8433,0.4921 -0.3938,0.3684 -0.6096,0.8353 -0.6639,1.4276 -0.0134,0.1605 -0.0232,1.6791 -0.0232,3.786l0 3.9446 -3.0564 0 0 -6.3084 0 -6.0283 6.5993 0c0.83,0 1.4495,0.0831 2.0496,0.3917 0.8666,0.4421 1.4894,1.2662 1.7364,2.2908 0.1488,0.6115 0.1408,0.3492 0.1488,4.9879l0.0099 4.6663z" /><path
         id="_126921136"
         class="fil1"
         d="M107.544 173.387c-0.3888,0 -0.7745,-0.0162 -1.0042,-0.0477 -0.7084,-0.0965 -1.2099,-0.247 -1.82,-0.5464 -1.0033,-0.4901 -1.7577,-1.2563 -2.2787,-2.3115 -0.4862,-0.9881 -0.6813,-1.9454 -0.6793,-3.3364 0.0039,-1.6115 0.3226,-2.8347 1.0092,-3.8617 1.0404,-1.5591 2.6553,-2.35 4.7913,-2.35 1.6693,0 3.0184,0.4748 4.0024,1.4065 0.957,0.905 1.4954,1.9953 1.735,3.5122 0.0731,0.465 0.1022,1.8042 0.0498,2.3022 -0.1561,1.5032 -0.6619,2.6764 -1.5456,3.5949 -0.8798,0.9148 -1.9025,1.4143 -3.2398,1.5902 -0.2406,0.0315 -0.6318,0.0479 -1.0201,0.0479m0.381 -9.6958c-0.2906,0 -0.588,0.0385 -0.8004,0.1131 -0.9805,0.3399 -1.6791,1.3219 -1.893,2.6612 -0.2396,1.4913 0.0731,2.9832 0.8103,3.8536 0.4301,0.5074 0.94,0.787 1.5881,0.8701 0.046,0.0063 0.1053,0.0088 0.1719,0.0088 0.2455,0 0.5953,-0.0385 0.7909,-0.0919 0.6773,-0.1887 1.2642,-0.7252 1.6406,-1.5048 0.326,-0.6758 0.4436,-1.3357 0.4145,-2.3371 -0.0213,-0.743 -0.0811,-1.1075 -0.2757,-1.6518 -0.1427,-0.3992 -0.3049,-0.6906 -0.5656,-1.0187 -0.3547,-0.4476 -0.7485,-0.7024 -1.2908,-0.8392 -0.169,-0.0426 -0.378,-0.0633 -0.5908,-0.0633z" /><path
         id="_126921064"
         class="fil1"
         d="M73.5133 173.33c-0.084,0 -0.1549,-0.0023 -0.2033,-0.0078 -1.034,-0.1196 -1.6594,-0.3301 -2.2635,-0.9475 -0.6135,-0.6274 -0.9377,-1.4993 -0.9337,-2.5204 0.004,-1.8214 0.9357,-3.0258 2.7383,-3.5351 0.3319,-0.0944 1.8021,-0.3625 2.3405,-0.4282 0.5597,-0.0678 1.2716,-0.257 1.4801,-0.3957 0.4382,-0.2875 0.5517,-0.4767 0.5517,-0.915 0.0002,-0.3334 -0.0791,-0.5439 -0.2835,-0.7483 -0.2875,-0.2896 -0.737,-0.421 -1.4349,-0.421 -0.071,0 -0.1443,0.0016 -0.2204,0.004 -1.241,0.0445 -1.7217,0.3724 -1.901,1.2968l-0.0558 0.2934 -2.9448 0 0 -0.1161c0,-0.0632 0.0307,-0.2949 0.0672,-0.5132 0.3088,-1.8062 1.4167,-2.8539 3.3079,-3.2416 0.4589,-0.095 1.0264,-0.1429 1.6014,-0.1488 0.0346,-0.0005 0.0691,-0.0005 0.1037,-0.0005 0.5547,0 1.1124,0.0445 1.5849,0.128 1.7927,0.324 2.7634,1.0803 3.1087,2.547 0.0287,0.1235 0.0465,1.241 0.0598,3.9481l0.0213 3.7786 0.0751 0.2238c0.0889,0.2642 0.3957,0.8512 0.5908,1.0379 0.1328,0.1274 0.2005,0.2894 0.2005,0.4766l0 0.1972 -3.3346 0 -0.1021 -0.1778c-0.1798,-0.3108 -0.3361,-0.5054 -0.3977,-1.1673l-0.0213 -0.2298 -0.2935 0.2722c-0.7428,0.6906 -1.5974,1.0731 -2.462,1.237 -0.2196,0.0419 -0.6821,0.0735 -0.9798,0.0735m3.7181 -5.9764l-0.2317 0.087c-0.3008,0.1136 -0.747,0.2198 -1.6481,0.3912 -1.0651,0.2031 -1.563,0.3918 -1.8351,0.7026 -0.2737,0.3086 -0.3932,0.7815 -0.3142,1.2369 0.1077,0.6314 0.4974,0.9939 1.2059,1.1214 0.0793,0.0138 0.2017,0.0203 0.3392,0.0203 0.2802,0 0.6231,-0.0266 0.7915,-0.0706 0.5982,-0.1542 1.1135,-0.5691 1.3718,-1.1057 0.2357,-0.4861 0.2861,-0.7523 0.3053,-1.6247l0.0154 -0.7584z" /><path
         id="_126920992"
         class="fil1"
         d="M86.895 173.322l-3.3326 0c-0.4163,-0.4382 -0.5171,-0.9687 -0.5171,-1.567l-0.0559 -6.8157 0 -11.117 3.1147 0 -0.0252 11.1575 -0.0193 6.4086c0,0.2797 0.1872,0.7178 0.5345,1.1328 0.382,0.4535 0.3009,0.5632 0.3009,0.8008z" /><path
         id="_126920920"
         class="fil1"
         d="M129.223 173.303c-0.7914,0 -1.4302,-0.6407 -1.4302,-1.43 0,-0.7891 0.6388,-1.4298 1.4302,-1.4298 0.7895,0 1.4282,0.6408 1.4282,1.4298 0,0.7893 -0.6389,1.43 -1.4282,1.43z" /><path
         id="_126920848"
         class="fil1"
         d="M139.521 166.508c-0.7279,-0.7142 -1.7397,-1.0769 -3.0356,-1.0881l-0.1238 0c-1.2958,0.0112 -2.3078,0.3739 -3.0357,1.0881 -0.7395,0.7116 -1.1024,1.7163 -1.1024,2.972 0,1.2558 0.3629,2.2465 1.1024,2.972 0.7395,0.7257 1.7581,1.0884 3.0976,1.0884 1.3256,0 2.3442,-0.3627 3.0837,-1.0884 0.7395,-0.7255 1.1021,-1.7162 1.1021,-2.972 0.0002,-1.2558 -0.3626,-2.2464 -1.0883,-2.972l0 0zm-2.4417 5.2045c-0.2094,0.0698 -0.4186,0.1116 -0.6419,0.1116 -0.2651,0 -0.4883,-0.0418 -0.6977,-0.1254 -0.1953,-0.0839 -0.3766,-0.2094 -0.5163,-0.3769 -0.1533,-0.1953 -0.265,-0.4325 -0.3488,-0.7395 -0.0697,-0.3069 -0.1116,-0.6697 -0.1116,-1.0883 0,-0.4604 0.0419,-0.8511 0.1396,-1.158 0.0836,-0.3071 0.1954,-0.5442 0.3489,-0.7257 0.1674,-0.1953 0.3488,-0.3209 0.5301,-0.3767 0.1814,-0.0699 0.4047,-0.0977 0.6419,-0.0977 0.2232,0 0.4464,0.0418 0.6558,0.1117 0.2092,0.0836 0.3767,0.2092 0.5301,0.3907 0.1397,0.1814 0.2513,0.4324 0.335,0.7255 0.0837,0.307 0.1255,0.6837 0.1255,1.1302 0,0.4883 -0.0418,0.8651 -0.1255,1.1442 -0.0699,0.2651 -0.1953,0.5023 -0.3488,0.6977 -0.1395,0.1813 -0.321,0.3069 -0.5163,0.3766l0 0z" /><path
         id="_126920776"
         class="fil1"
         d="M147.901 165.657c-0.0838,-0.014 -0.1815,-0.0139 -0.2791,-0.0279 -0.1116,0 -0.2093,0 -0.2929,0 -0.335,0 -0.7117,0.0697 -1.1024,0.2232 -0.4047,0.1535 -0.8651,0.4604 -1.4093,0.9349l0 -1.1302 -2.4557 0 0 7.6464 2.4557 0 0 -5.121c0.307,-0.0976 0.5999,-0.1813 0.8652,-0.2232 0.265,-0.0418 0.572,-0.0697 0.9208,-0.0697 0.1536,0 0.3488,0.014 0.572,0.0279 0.2374,0.014 0.4047,0.0418 0.5025,0.0837l0.2232 0 0 -2.3441z" /><path
         id="_126920704"
         class="fil1"
         d="M156.734 165.657l-2.3859 0 -0.0837 0.3349c-0.2791,-0.1675 -0.586,-0.3069 -0.921,-0.4047 -0.3488,-0.0977 -0.7116,-0.1394 -1.1302,-0.1394 -0.4604,-0.0002 -0.907,0.0836 -1.3534,0.265 -0.4326,0.1814 -0.8094,0.4186 -1.1023,0.7395 -0.321,0.3489 -0.5721,0.7396 -0.7535,1.2 -0.1814,0.4604 -0.2651,1.0046 -0.2651,1.6325 0,1.3116 0.2929,2.3022 0.879,2.9441 0.5721,0.6418 1.4092,0.9628 2.4837,0.9628 0.4326,0 0.8371,-0.0698 1.1999,-0.2093 0.3488,-0.1396 0.6838,-0.3349 0.9767,-0.5721l0.0002 0.1394c0,0.321 -0.028,0.5862 -0.0978,0.8234 -0.0558,0.2232 -0.1674,0.4046 -0.307,0.5442 -0.1535,0.1535 -0.3627,0.2791 -0.6418,0.3628 -0.2931,0.0836 -0.6558,0.1255 -1.1162,0.1255 -0.3348,0 -0.7256,-0.0557 -1.1582,-0.1535 -0.4324,-0.0976 -0.7952,-0.1953 -1.1023,-0.3209l-0.293 0 0 1.9255c0.3768,0.0838 0.8233,0.1675 1.3396,0.2232 0.4839,0.0654 0.9802,0.0941 1.4772,0.0975l0.1758 0c0.6249,-0.0042 1.1855,-0.0605 1.6817,-0.1811 0.5163,-0.1256 0.9628,-0.3349 1.3255,-0.614 0.3768,-0.2791 0.6558,-0.6558 0.8651,-1.1441 0.2094,-0.5024 0.307,-1.1023 0.307,-1.8139l0 -6.7673zm-3.0975 5.5393c-0.2372,0.0699 -0.4744,0.1118 -0.7257,0.1118 -0.5441,-0.0002 -0.9488,-0.1396 -1.2278,-0.4326 -0.2652,-0.2931 -0.4047,-0.8094 -0.4047,-1.5349 0,-0.6697 0.1675,-1.186 0.4883,-1.5487 0.321,-0.3768 0.7954,-0.5582 1.4373,-0.5582 0.1675,0 0.3488,0.014 0.5581,0.0558 0.2093,0.028 0.3768,0.0698 0.5162,0.1396l0.0002 3.4603c-0.1954,0.1256 -0.4048,0.2233 -0.6419,0.3069l0 0z" /><path
         id="_126920632"
         class="fil1"
         d="M60.2478 175.676c-1.9579,0 -3.9095,-0.8285 -5.4086,-2.4122 -1.4665,-1.5478 -2.5859,-3.9911 -2.7401,-5.9823 -0.1739,-2.2676 0.5789,-4.3764 2.0975,-5.8662 1.4548,-1.4263 3.782,-2.4217 5.681,-2.4315 0.0138,0 0.0277,0 0.0416,0 0.5864,0 1.1339,0.0711 1.6508,0.2104 0.7218,0.1951 1.3797,0.5271 1.9894,1.0012 0.3838,0.2994 0.9029,0.8493 1.1693,1.2371l0.1392 0.2046 -1.3798 0.683 -1.3797 0.6813 -0.3067 -0.2544c-0.6633,-0.5513 -1.4548,-0.8412 -2.2556,-0.8412 -0.2338,-0.0001 -0.4685,0.0246 -0.701,0.0751 -0.7469,0.162 -1.5611,0.5517 -2.1632,1.0338 -1.1806,0.9461 -1.6826,2.472 -1.3624,4.1552 0.1373,0.7272 0.2801,1.1094 0.7814,2.1048 0.4362,0.8665 0.5292,1.0211 0.8226,1.3778 0.7637,0.9321 1.563,1.5151 2.5065,1.8298 0.4497,0.1506 0.9015,0.2237 1.3433,0.2237 1.4859,0 2.8629,-0.8259 3.699,-2.2985 0.2915,-0.5133 0.4303,-1.0631 0.4243,-1.6787 -0.0039,-0.4189 -0.1235,-1.1 -0.2297,-1.3086l-0.0498 -0.1022 -1.6056 0.8107 -1.6075 0.8106 -1.2275 -2.4315 2.8445 -1.4341 2.8424 -1.4354 1.9394 3.8422 1.8585 3.6818 -2.4739 1.2484 -0.6176 -1.2236c-0.3029,1.3796 -1.0961,2.4353 -2.2887,3.2342 -0.2005,0.1372 -0.496,0.3013 -0.8026,0.4554 -0.2955,0.1467 -0.6023,0.2835 -0.8454,0.3745 -0.7753,0.285 -1.581,0.4248 -2.3853,0.4248z" /><path
         id="_126920560"
         class="fil1"
         d="M103.252 152.032c-17.5094,0 -31.7854,-13.9071 -32.3822,-31.2702l0.1384 0.1121 0.0119 0.0098 0.1726 0.12 0.0167 0.012 0.1858 0.1046 0.017 0.01 0.194 0.0868 0.0153 0.007 0.1991 0.0717 0.023 0.008 0.2123 0.0502 0.0143 0.0034 0.2139 0.0347 0.0208 0.0034 0.2253 0.015 0.0214 0.0012 0.234 -0.0082 0.0133 -0.0006 0.2329 -0.0223 0.0229 -0.0025 0.2482 -0.0508 0.0114 -0.0025 0.2455 -0.0646 0.0136 -0.0035 0.2546 -0.0854 0.0154 -0.0055 0.2618 -0.1107 0.0084 -0.0034 0.2611 -0.1235 0.0129 -0.0059 0.2727 -0.1518 0.0079 -0.0043 0.2757 -0.1685 0.0101 -0.0064 0.284 -0.1956 0.0075 -0.0055 0.2864 -0.2154 0.0074 -0.006 0.293 -0.241 0.0042 -0.0035 0.2978 -0.2588 0.0064 -0.0054 0.3049 -0.2871c0.3862,-0.3546 0.7451,-0.7231 1.0836,-1.099l0.0005 0.0004 0.0521 0.0573 0.0017 0.0016 0.0433 0.0473 0.0079 0.0084 0.0526 0.051 0.004 0.0037 0.0931 0.0852 0.0156 0.0139 0.0613 0.0448 0.0034 0.0025 0.0497 0.035 0.0076 0.0055 0.0537 0.0341 0.0254 0.0158 0.1242 0.0548 0.0343 0.0148 0.0865 0.0198 0.0132 0.0029 0.0489 0.0079 0.0107 0.0025 0.0444 0.0105 0.1249 0 0.0432 0 0.0528 -0.0121 0.0127 -0.0014 0.0258 -0.0039 0.0521 -0.0138 0.0025 -0.001 0.0274 -0.0074 0.0058 -0.0014 0.0054 -0.0021c0.3214,-0.0988 0.6685,-0.1674 1.0358,-0.2049 -0.0163,0.36 -0.0246,0.7213 -0.0246,1.0848 0,12.9867 10.5381,23.5228 23.5248,23.5228 6.1726,0 11.7929,-2.3795 15.9919,-6.2713 0.2574,0.0784 0.5138,0.1546 0.7696,0.2273 2.3297,0.6627 4.5606,1.0823 6.1232,1.0842 0.4733,-0.0005 0.8876,-0.0379 1.2423,-0.1313 0.3504,-0.0948 0.666,-0.2435 0.8754,-0.5409l0.0054 -0.008 0.3336 -0.5351 0.3176 -0.5758 0.3122 -0.6122 0.2993 -0.6492 0.2861 -0.6821 0.2677 -0.7123 0.2529 -0.7356 0.2342 -0.7593 0.2065 -0.7811 0.1847 -0.7958 0.1557 -0.8087 0.1298 -0.821 0.0924 -0.8259 0.0633 -0.8311 0.0217 -0.8313 -0.0177 -0.8254 -0.0534 -0.8241 -0.1038 -0.814 -0.1477 -0.8003 -0.2021 -0.785 -0.2523 -0.7676 -0.3043 -0.7346 -0.1735 -0.3588 -0.0039 -0.0078 -0.1857 -0.3459 -0.0045 -0.0083 -0.203 -0.3418 -0.0051 -0.008 -0.2152 -0.3295 -0.0045 -0.007 -0.2267 -0.3195 -0.007 -0.0098 -0.2513 -0.3147 -0.0045 -0.0054 -0.2589 -0.3029 -0.0079 -0.0094 -0.281 -0.2924 -0.0056 -0.006 -0.2914 -0.2816 -0.0069 -0.0069 -0.3127 -0.2751 -0.0094 -0.008 -0.332 -0.2602 -0.0059 -0.0045 -0.3388 -0.2476 -0.01 -0.0068 -0.3631 -0.2361 -0.0088 -0.0055 -0.1921 -0.1117c-1.3571,-11.7009 -11.3128,-20.7988 -23.3748,-20.7988 -2.1504,0 -4.2346,0.2894 -6.2141,0.831l-0.3194 -0.05 -2.1287 -0.3319 1.2289 0.7517c-4.3557,1.452 -8.1471,4.1453 -10.9532,7.6586 -0.0299,-0.0006 -0.06,-0.001 -0.0903,-0.001 -0.1329,0 -0.2683,0.0039 -0.4061,0.0114l-0.0066 0.0004 -0.0064 0.0005c-1.0798,0.0925 -2.0314,0.5134 -2.8756,1.1447 -1.2679,0.9484 -2.3189,2.3564 -3.3688,3.9376 -1.0472,1.5807 -2.0897,3.3405 -3.297,5.0053 -0.3334,0.441 -0.6256,0.7444 -0.859,0.9233 -0.2296,0.1778 -0.391,0.2243 -0.4683,0.2243 -0.0018,-0.0001 -0.0037,0 -0.0055,0l-0.0958 -0.0228c-0.0539,-0.0268 -0.1398,-0.1042 -0.2274,-0.2658 -0.1323,-0.2392 -0.2512,-0.6436 -0.3254,-1.1529 -0.0756,-0.5094 -0.1124,-1.1239 -0.1124,-1.7997 -0.0003,-1.5122 0.1831,-3.3315 0.4905,-5.0368l0.1453 -0.8068c4.8974,-11.6826 16.442,-19.8973 29.8953,-19.8973 17.8864,-0.0001 32.4089,14.5227 32.4089,32.4109 0.0002,17.8863 -14.5225,32.4015 -32.4089,32.4015m-24.42 -35.3384c0.4794,-0.6224 0.9285,-1.2374 1.3758,-1.8149 -0.0641,0.3127 -0.1224,0.6289 -0.1739,0.9455 -0.3092,0.3132 -0.6355,0.577 -0.9801,0.7623 -0.0731,0.0389 -0.147,0.0751 -0.2218,0.1071z" /><path
         id="_126920488"
         class="fil1"
         d="M89.8749 107.656c-0.0079,-0.0198 -0.0157,-0.0399 -0.0238,-0.0602 -0.1345,-0.335 -0.3077,-0.6739 -0.5706,-1.0444 -0.263,-0.3715 -0.5239,-1.0455 -1.0188,-1.5336l-0.355 -0.3504c0.1563,-0.4579 0.3424,-0.6541 0.7709,-1.1041 0.3682,-0.3537 0.8004,-0.5949 1.3102,-0.7534 0.5112,-0.1587 1.1005,-0.2292 1.7554,-0.2292 0.001,0 0.0018,0 0.0028,0 0.0022,0 0.0045,0 0.0067,0 0.5352,0 0.6685,0.0651 1.2799,0.1456 -0.2841,0.5772 -0.3562,0.8622 -0.5961,1.1477 -0.4901,0.582 -0.6241,0.8057 -1.0157,1.1165 -0.3926,0.3086 -0.8022,0.7043 -1.2461,1.4952l-0.0214 0.038 -0.0126 0.0416c-0.1189,0.3907 -0.2085,0.744 -0.2658,1.0907m10.6598 -1.4079c-1.2381,-0.1507 -2.4541,-0.3586 -3.6192,-0.4446 0.0268,-0.0795 0.0524,-0.161 0.0769,-0.2449 0.1731,-0.6044 0.3701,-1.3093 0.3984,-2.1135 1.2244,0.2603 2.4171,0.5139 3.7188,0.7154l0.004 0.0004 0.004 0.0005c0.3606,0.0488 0.6757,0.0732 0.9539,0.0732 0.4476,-0.0025 0.8007,-0.0563 1.0981,-0.2193 0.1472,-0.0826 0.2791,-0.2007 0.368,-0.3498 0.089,-0.1489 0.1285,-0.3201 0.128,-0.4806 -0.0019,-0.2511 -0.081,-0.4802 -0.1966,-0.7104 -0.2046,-0.4013 -0.5376,-0.8166 -0.9673,-1.2661 -0.8971,-0.9328 -2.2289,-1.9998 -3.6852,-3.009l0.0332 0.0099 -0.0035 -0.0011 0.3675 0.1078 0.3571 0.1189 0.3586 0.1315 -0.0029 -0.001 0.3547 0.1323 0.3443 0.1408 0.3389 0.1448 0.6635 0.3142 0.6392 0.3355 0.3047 0.1708 0.2994 0.1804 0.2926 0.1813 0.2814 0.1826 0.2752 0.1933 0.2683 0.1927 0.2564 0.1921 0.246 0.1956 0.2367 0.1982 0.2267 0.1985 0.2173 0.2031 0.2046 0.198 0.1941 0.2022 0.1843 0.2001 0.1684 0.1979 0.1585 0.201 0.1488 0.1957 0.1338 0.1932 0.1161 0.1853 0.1063 0.1892 0.0942 0.1868 0.0811 0.1768 0.0667 0.1744 0.0514 0.1614 0.0345 0.1601 0.0278 0.1581 0.0103 0.1442 0 0.1389 -0.0128 0.1319 -0.0237 0.1195 -0.0396 0.1205 -0.0479 0.1112 -0.0663 0.113 -0.0705 0.1044 -0.0905 0.0953 -0.1116 0.1042 -0.1245 0.0954 -0.1458 0.0918 -0.1688 0.0875 -0.1892 0.0835 -0.2095 0.0776 -0.0499 0.0147c0.039,-0.2148 0.0751,-0.4376 0.1097,-0.6688l0.1477 -0.9851 -0.7959 0.5987c-0.455,0.3434 -0.7241,0.5544 -0.8936,0.6541 -0.085,0.0504 -0.1399,0.0737 -0.1907,0.088 -0.0518,0.0138 -0.1077,0.0213 -0.2015,0.0213 -0.0041,-0.0002 -0.008,0 -0.0119,0 -0.2914,0.0004 -0.864,-0.0929 -2.025,-0.1271l-0.0641 -0.0019 -0.1601 0.0463 -0.0178 0.0055 -0.1032 0.0406 -0.0865 0.0296 -0.0114 0.004 -0.1002 0.0409 -0.0088 0.0039 -0.1779 0.0831 -0.0074 0.0035 -0.168 0.0868 -0.0108 0.0054 -0.1567 0.093 -0.0119 0.0073 -0.1214 0.0836m-6.8225 -0.8155c0.3838,-0.8083 0.8073,-1.6094 0.9394,-2.5297 0.35,0.0606 0.5676,0.0932 0.9334,0.1663 -0.3661,0.6565 -0.8371,1.2474 -1.3623,1.8234 -0.1655,0.1818 -0.3365,0.3611 -0.5105,0.54z" /><path
         id="_126920416"
         class="fil1"
         d="M72.5549 120.544l-0.162 -0.0103 -0.1637 -0.0272 -0.1508 -0.035 -0.1444 -0.0519 -0.1425 -0.0643 -0.1331 -0.0749 -0.1306 -0.0915 -0.1267 -0.1022 -0.1171 -0.1122 -0.1174 -0.1364 -0.1121 -0.1417 -0.1025 -0.1557 -0.1001 -0.1733 -0.0939 -0.1824 -0.0869 -0.1956 -0.079 -0.2079 -0.0739 -0.2224 -0.0663 -0.2297 -0.0573 -0.2365 -0.049 -0.2515 -0.0418 -0.2628 -0.035 -0.2697 -0.0234 -0.2763 -0.0171 -0.2878 -0.0072 -0.2946 0 -0.3008 0.0092 -0.3078 0.0184 -0.3136 0.028 -0.3176 0.0373 -0.3221 0.0469 -0.3277 0.056 -0.3363 0.0655 -0.3344 0.0748 -0.3404 0.0842 -0.3384 0.0955 -0.3453 0.1032 -0.3447 0.1141 -0.3445 0.1238 -0.3471 0.1347 -0.3484 0.1448 -0.3452 0.1538 -0.3493 0.1648 -0.3449 0.1745 -0.3433 0.1847 -0.3389 0.0271 -0.0463c-0.1358,1.1268 -0.2116,2.2398 -0.2118,3.2411 0.0011,1.0784 0.0851,2.0239 0.296,2.7472 0.1075,0.362 0.2446,0.6738 0.4537,0.9242 0.1049,0.1245 0.2305,0.2331 0.3799,0.3107 0.1474,0.077 0.3174,0.1196 0.4881,0.1196 0.0013,0 0.0026,0 0.0038,0 0.3508,-0.0025 0.6764,-0.1561 0.9987,-0.4032 0.3238,-0.2499 0.6566,-0.606 1.0216,-1.0872l0.0026 -0.0035 0.0027 -0.004c1.6507,-2.2779 2.9717,-4.6751 4.3509,-6.5123 0.6884,-0.9185 1.3895,-1.6944 2.1366,-2.2512 0.7471,-0.5558 1.5304,-0.8966 2.4291,-0.9762 0.1196,-0.0064 0.2367,-0.0098 0.3511,-0.0098 1.2212,0.0003 1.6765,0.1486 2.2985,0.646 0.0414,0.0331 0.0813,0.0667 0.12,0.1013 0.0672,0.493 0.4554,1.2395 0.4551,1.7884 0,0.5 -0.0781,1.0048 -0.2075,1.4929 -0.4638,0.31 -0.9664,0.5508 -1.9038,0.6258 -1.2163,0.0741 -2.2363,0.4442 -3.1094,1.0033 -1.313,0.8414 -2.2996,2.0823 -3.2917,3.3919 -0.5014,0.6633 -1.0043,1.3467 -1.5457,2.0121 -0.1288,-0.015 -0.2624,-0.0396 -0.4016,-0.0762l-1.5779 -0.4129 1.2708 1.1376 0.0503 0.043 0.0326 0.0301 0.0076 0.0078c-0.3487,0.3928 -0.7165,0.7743 -1.1119,1.1364l-0.0022 0.0018 -0.2948 0.2777 -0.2828 0.2456 -0.2736 0.2252 -0.2653 0.2001 -0.2571 0.1773 -0.2503 0.1533 -0.2402 0.1333 -0.2319 0.1097 -0.2238 0.0943 -0.2122 0.0712 -0.2084 0.0552 -0.1917 0.0396 -0.1839 0.0178 -0.1777 0.0058z" /><path
         id="_126920344"
         class="fil1"
         d="M91.6633 111.807c1.8878,0 3.4186,1.5308 3.4186,3.4184 0,0.5899 -0.065,1.2579 -0.3281,1.7422 -0.5788,1.0656 -1.7926,1.6764 -3.0905,1.6764 -1.8876,0 -3.4184,-1.5308 -3.4184,-3.4186 0,-1.8876 1.5308,-3.4184 3.4184,-3.4184zm1.5072 2.7791c0.7024,0 1.272,0.5696 1.272,1.272 0,0.7024 -0.5696,1.272 -1.272,1.272 -0.7024,0 -1.272,-0.5696 -1.272,-1.272 0,-0.7024 0.5696,-1.272 1.272,-1.272z" /><path
         id="_126920272"
         class="fil1"
         d="M97.7908 110.535c1.4781,0 2.7478,1.2414 2.7478,2.7193 -0.0001,1.5976 -1.1986,2.7768 -2.6766,2.7051 -0.6106,0 -1.2447,-0.2761 -1.6951,-0.6205 0.0009,-0.0377 0.0015,-0.0756 0.0015,-0.1135 0,-1.0415 -0.3538,-2.0004 -0.9475,-2.7635 0.3242,-1.1132 1.3522,-1.9269 2.5699,-1.9269zm0.9135 2.226c0.6247,0 1.1313,0.5067 1.1313,1.1314 0,0.6247 -0.5066,1.1313 -1.1313,1.1313 -0.6247,0 -1.1314,-0.5066 -1.1314,-1.1313 0,-0.6247 0.5067,-1.1314 1.1314,-1.1314z" /><path
         id="_126920200"
         class="fil1"
         d="M102.214 110.583c-0.5197,-0.7435 -1.204,-1.3722 -1.9351,-1.9962l0.0252 -0.0815 0.083 -0.1616 0.043 -0.1233 0.045 -0.1181 0.0494 -0.1162 0.0543 -0.1195 0.0558 -0.1175 0.0572 -0.1078 0.0633 -0.1067 0.0667 -0.1008 0.075 -0.0997 0.0786 -0.0975 0.0856 -0.0909 0.0942 -0.0927 0.0984 -0.0855 0.1111 -0.085 0.118 -0.0815 0.1241 -0.0735 0.1423 -0.0737 0.1536 -0.0717 0.0686 -0.028 0.0836 -0.0288 0.0084 -0.003 0.0854 -0.0336 0.0182 -0.0053c1.1061,0.0346 1.2088,0.1795 1.6209,0.1819 0.001,0 0.002,0 0.0034,0 0.1389,0 0.2767,-0.0127 0.4135,-0.0503 0.1911,-0.053 0.3572,-0.1443 0.536,-0.2648 -0.1862,0.8945 -0.4318,1.599 -0.8241,2.2408 -0.4499,0.7355 -0.6592,1.2079 -1.7026,1.992z" /><path
         id="_126920128"
         class="fil1"
         d="M126.157 137.276c-0.0029,0 -0.0064,0.0002 -0.0093,0.0002 -0.0026,-0.0002 -0.0051,0 -0.0075,0 -1.0754,-0.0002 -2.6078,-0.2322 -4.2765,-0.6309 -0.9174,-0.2184 -1.8777,-0.4866 -2.8331,-0.7919 2.0664,-0.0267 3.9267,-0.5093 4.7196,-1.4094 0.5771,-0.6931 1.0404,-2.1577 0.4827,-3.0395 -0.0899,-0.1518 -0.2169,-0.3127 -0.377,-0.4812l0.0238 -0.0031 0.0104 -0.0014 0.2065 -0.0361 0.0114 -0.0019 0.2025 -0.0475 0.0103 -0.002 0.1991 -0.0567 0.0094 -0.0025 0.1941 -0.0653 0.0115 -0.0033 0.1921 -0.0762 0.0118 -0.005 0.1852 -0.0864 0.0055 -0.0026 0.1788 -0.0893 0.0129 -0.0063 0.1763 -0.1032 0.007 -0.0045 0.1669 -0.1063 0.009 -0.006 0.1654 -0.1179 0.0074 -0.005 0.1586 -0.1235 0.0094 -0.007 0.1536 -0.1334 0.0075 -0.0064 0.1447 -0.1382 0.0073 -0.007 0.1384 -0.1448 0.008 -0.0083 0.1309 -0.1536 0.0049 -0.006 0.1239 -0.1556 0.007 -0.0084 0.1185 -0.1655 0.0064 -0.0094 0.1087 -0.1693 0.0064 -0.0105 0.1003 -0.1784 0.002 -0.0045 0.0929 -0.1733 0.0075 -0.0137 0.0854 -0.1912 0.0039 -0.0095 0.0737 -0.1892 0.0039 -0.0099 0.0647 -0.1951 0.0035 -0.0088 0.0563 -0.1986 0.0025 -0.0085 0.0483 -0.2015 0.0025 -0.0104 0.0385 -0.2054 0.0026 -0.0129 0.0266 -0.2109 0.0019 -0.015 0.0125 -0.2181 0 -0.0041 0.0078 -0.208 0.0006 -0.0078 0 -0.0085c-0.0006,-2.431 -1.9732,-4.401 -4.4056,-4.4014 -1.152,-0.0001 -2.2013,0.4425 -2.9863,1.1673 -0.4702,-1.5942 -1.9463,-2.7565 -3.6921,-2.7565 -2.1237,-0.0001 -3.8454,1.7206 -3.8454,3.8453 0,0.8846 0.2984,1.6998 0.8003,2.3494 0.0941,0.059 0.1454,0.2125 0.0336,0.234 -0.1117,0.0216 -0.1303,0.0525 -0.2894,0.0821l-0.1394 0.0577 -0.1328 0.0617 -0.1275 0.0677 -0.1235 0.0691 -0.1196 0.0757 -0.1121 0.0789 -0.1062 0.0811 -0.1037 0.085 -0.0988 0.0884 -0.0943 0.0928 -0.087 0.0964 -0.087 0.0983 -0.077 0.1008 -0.0752 0.1036 -0.1352 0.2144 -0.1196 0.2259 -0.1042 0.2317 -0.085 0.241 -0.0712 0.247 -0.0578 0.251 -0.0405 0.255 -0.0291 0.2582 -0.0113 0.2604 -0.006 0.2608 0.0134 0.2603 0.0211 0.2605 0.0366 0.2568 0.0406 0.2529 0.0266 0.1145c-0.0178,-0.0256 -0.0351,-0.0507 -0.0508,-0.0759 -0.1528,-0.2407 -0.7988,-0.7947 -0.7982,-0.9661 0.0791,-5.9528 1.2701,-9.3633 3.1196,-11.5666 0.9258,-1.104 2.5139,-1.9898 3.6302,-2.4561 1.1161,-0.4659 2.2962,-0.66 3.4616,-0.66 1.0014,-0.0001 1.9912,0.1438 2.9121,0.3793l0.4678 0.1315 0.4451 0.1427 0.4268 0.1591 0.409 0.1743 0.3903 0.1819 0.3705 0.1971 0.3606 0.2089 0.3345 0.2175 0.3182 0.2321 0.3072 0.24 0.2875 0.2535 0.2726 0.2637 0.258 0.2688 0.2421 0.2825 0.2312 0.2896 0.2099 0.2959 0.2011 0.3077 0.1891 0.3182 0.1724 0.3205 0.1585 0.329 0.2826 0.6812 0.2337 0.7104 0.1873 0.7287 0.1378 0.7474 0.0977 0.7637 0.0505 0.778 0.0168 0.787 -0.0208 0.7895 -0.0602 0.7948 -0.0885 0.7909 -0.1249 0.7874 -0.1497 0.7786 -0.1779 0.7671 -0.1991 0.752 -0.2247 0.7291 -0.2451 0.7114 -0.2574 0.6851 -0.2736 0.6536 -0.2865 0.6205 -0.2974 0.5843 -0.2998 0.5435 -0.3133 0.5018c-0.0336,0.043 -0.1501,0.1276 -0.3793,0.1864 -0.2431,0.0646 -0.592,0.1023 -1.0128,0.1023m-6.8563 -9.0954c-0.3871,-0.1642 -0.7748,-0.3239 -1.1637,-0.4771l0.1006 -0.0599 0.0091 -0.0052 0.2974 -0.1837 0.0276 -0.0172 0.2966 -0.2123 0.02 -0.0153 0.1242 -0.0994c0.0749,0.3655 0.1714,0.723 0.2882,1.0701z" /><path
         id="_126919936"
         class="fil1"
         d="M117.177 127.337c-0.8606,-0.2722 -1.6945,-0.4634 -2.4315,-0.533 -0.1018,-0.0781 -0.1981,-0.163 -0.2886,-0.2534 -0.5314,-0.5327 -0.9014,-1.2774 -0.9018,-2.0886 -0.0805,-0.8522 0.2563,-1.6065 0.8589,-2.1026 0.618,-0.5166 1.3051,-0.815 2.1163,-0.8155 0.8111,0.0004 1.5428,0.3275 2.0753,0.8591 0.4955,0.4954 0.8142,1.1624 0.8556,1.9068 -0.3656,0.5902 -0.5948,1.2736 -0.6457,2.0057l-0.0197 0.026 -0.0924 0.1057 -0.0964 0.1014 -0.1032 0.0962 -0.1102 0.0949 -0.1116 0.0899 -0.1087 0.0775 -0.1235 0.0766 -0.1249 0.0736 -0.1191 0.0614 -0.1343 0.0592 -0.1335 0.0543 -0.1333 0.045 -0.1388 0.0385 -0.0889 0.0213m-1.9081 -4.4222c-0.6214,0 -1.1174,0.5014 -1.1174,1.1155 0.0001,0.6193 0.496,1.1188 1.1174,1.1188l0.054 0 0.0617 -0.004 0.0543 -0.0073 0.0559 -0.01 0.0538 -0.0133 0.0543 -0.0152 0.0479 -0.0174 0.0543 -0.0197 0.0481 -0.0229 0.0483 -0.0252 0.0465 -0.025 0.0484 -0.0307 0.0405 -0.0312 0.0405 -0.0325 0.0425 -0.0352 0.0405 -0.0365 0.0326 -0.0385 0.0425 -0.0424 0.0271 -0.0407 0.0327 -0.0443 0.0291 -0.0465 0.0267 -0.0458 0.0272 -0.0486 0.0192 -0.0504 0.0213 -0.0499 0.0212 -0.0523 0.0133 -0.0538 0.0139 -0.0518 0.0053 -0.0565 0.008 -0.0558 0.0059 -0.0558 0 -0.0577 0 -0.0021c0,-0.614 -0.498,-1.1153 -1.1175,-1.1153z" /><path
         id="_126919888"
         class="fil1"
         d="M123.204 130.17c-0.1082,0 -0.2149,-0.0049 -0.3206,-0.0147 -0.7134,-0.5243 -1.6278,-1.068 -2.6237,-1.562 -0.3774,-0.5644 -0.5978,-1.2414 -0.5978,-1.9721 -0.088,-1.0018 0.3325,-1.8795 1.0395,-2.5066 0.6432,-0.6422 1.5273,-1.0383 2.5075,-1.0383 0.9811,-0.0001 1.8658,0.3961 2.5096,1.0383 0.6412,0.6417 1.0373,1.5226 1.0393,2.4997l-0.0075 0.191 -0.0103 0.1845 -0.0217 0.1708 -0.0321 0.1715 -0.042 0.1738 -0.049 0.1718 -0.0552 0.1667 -0.0623 0.1595 -0.0682 0.1536 -0.0819 0.153 -0.086 0.1532 -0.0895 0.1404 -0.0993 0.1383 -0.1081 0.136 -0.1111 0.1302 -0.1157 0.1216 -0.1224 0.1166 -0.1285 0.1112 -0.1359 0.1057 -0.1413 0.1003 -0.1436 0.0918 -0.1448 0.0854 -0.1557 0.0776 -0.1566 0.0731 -0.1585 0.0628 -0.1651 0.0549 -0.1699 0.0483 -0.1694 0.0396 -0.1753 0.0311 -0.1779 0.0222 -0.1803 0.0138 -0.1887 0.0054m-1.803 -5.3495c-0.5982,0 -1.0784,0.4827 -1.0784,1.079 0,0.5943 0.4802,1.0764 1.0784,1.0764l0.0524 0 0.0598 -0.0035 0.0518 -0.0078 0.0523 -0.01 0.052 -0.0113 0.0524 -0.0153 0.0463 -0.0153 0.0539 -0.0198 0.0444 -0.0208 0.0924 -0.0504 0.0464 -0.0291 0.0386 -0.0287 0.0405 -0.0331 0.0385 -0.0324 0.0405 -0.0367 0.0332 -0.0366 0.0385 -0.041 0.0271 -0.0405 0.0327 -0.0404 0.0252 -0.044 0.0538 -0.093 0.0385 -0.0962 0.0193 -0.0504 0.0138 -0.05 0.0134 -0.0524 0.0058 -0.0537 0.0075 -0.0542 0.006 -0.0539 0 -0.0559c0,-0.5963 -0.4808,-1.0788 -1.077,-1.079z" /><path
         id="_126919792"
         class="fil1"
         d="M115.094 134.932c-0.5242,0 -1.0241,-0.0221 -1.4865,-0.0656 -0.8799,-0.0833 -0.8897,0.0032 -0.7539,-0.7663 0.6285,0.1108 1.3996,0.171 2.2404,0.1706 0.0009,-0.0002 0.0023,0 0.0033,0 1.4219,-0.0002 3.0436,-0.172 4.5336,-0.5445 1.4913,-0.3711 2.8499,-0.9484 3.7444,-1.7215l0.4319 0.5009c-1.0212,0.8767 -2.4626,1.4731 -4.0163,1.8624 -1.5536,0.3876 -3.2214,0.564 -4.6969,0.564z" /><path
         id="_126919744"
         class="fil1"
         d="M89.8698 133.571c0.3341,-0.202 1.0484,-0.6511 1.3684,-0.9362 0.8468,-0.7554 1.5689,-1.2828 2.2708,-3.3052l0.3881 -1.3312c0.0908,0.1541 0.1495,0.3356 0.1927,0.4995l0.0039 0.0148c0.275,1.494 0.016,2.5325 -0.225,3.8293 0.2144,0.0473 0.3358,0.1603 0.5305,0.1971 0.3263,-0.5853 0.642,-1.3418 0.8806,-1.5804 0.0805,-0.1151 0.1642,-0.2802 0.5467,-0.4338 0.4986,-0.2002 1.307,0.2928 1.5988,0.3741 0.1802,0.0501 0.2016,-0.0036 0.379,-0.0578 -0.0493,-0.0434 -1.2799,-0.9302 -1.3286,-0.9751 -0.7808,-0.7204 -1.5463,-1.8074 -2.1146,-2.8208 -0.0497,-0.1113 -0.1004,-0.2053 -0.1633,-0.3031 -0.2256,-0.4351 -0.4216,-0.8908 -0.5808,-1.3614l0.9965 -0.3358c0.3803,1.1282 1.0163,2.1838 1.7607,3.0534 0.7433,0.8704 1.5968,1.553 2.3811,1.9458 0.5193,0.2613 1.0049,0.3913 1.3901,0.3913 0.002,0 0.0041,0 0.0061,0 0.1362,0 0.2597,-0.0154 0.3709,-0.0436l0.044 0.1716c0.5478,-0.0766 0.9746,-0.1163 1.3412,-0.1888 0.5439,-0.1096 0.9727,-0.2693 1.6342,-0.7602 0.3965,-0.2969 0.8689,-0.716 1.4661,-1.3092 -0.208,-0.4659 -0.5097,-1.1278 -0.7726,-1.9543 -0.3136,-0.9849 -0.5755,-2.2111 -0.5755,-3.649 0,-1.1531 0.1685,-2.4421 0.6082,-3.8488 -0.8957,-2.7907 -1.2267,-5.4014 -2.4044,-7.3096 -1.1964,-1.9344 -3.2332,-3.1847 -6.1514,-4.3286l-0.6442 -0.2515 0.5447 -0.4263c0.2003,-0.1482 0.4591,-0.5721 0.632,-1.1901 0.2079,-0.4597 0.4192,-1.182 0.4949,-1.8216 0.0635,-0.5367 0.0133,-0.9986 -0.0325,-1.3626 0,-0.0152 -0.0001,-0.0302 -0.0001,-0.0453 -0.1631,0.3519 -0.3577,0.9493 -0.5957,1.4147 -0.3967,0.7759 -0.8813,1.4448 -1.2967,1.8984 -1.1187,1.2207 -2.3747,2.2797 -3.2464,3.5493l-0.6528 -0.4421c0.915,-0.8327 2.2978,-2.7927 2.8722,-4.5071 0.2269,-0.6109 0.1991,-1.3076 0.2916,-1.8113 -0.0804,0.0999 -0.4734,1.0635 -0.5746,1.2375 -0.5062,0.8684 -0.549,0.707 -0.948,1.2366 -0.3104,0.4118 -0.5252,0.7139 -1.0845,1.1636 -0.2118,0.2089 -0.3926,0.5032 -0.6549,0.9602 -0.2015,0.6729 -0.2184,1.1874 -0.2191,1.7506 0,0.4125 0.0512,0.8704 0.1593,1.4647l0.1401 0.7692c0.2669,-0.0494 0.542,-0.0756 0.8232,-0.0756 0.993,0 1.9099,0.324 2.6516,0.872 0.6033,-1.2666 1.8971,-2.1435 3.3906,-2.1435 1.7898,-0.0376 3.7525,1.6805 3.7525,3.748l0 0.0089 0 0.0044 -0.0045 0.1823 0 0.0133 -0.0133 0.1735 0 0.0088 -0.0223 0.1823 -0.0045 0.0133 -0.0311 0.1734 0 0.0134 -0.04 0.1689 -0.0045 0.009 -0.0489 0.1689 -0.0043 0.0177 -0.0535 0.1556 -0.0043 0.009 -0.0623 0.16 -0.0045 0.0089 -0.0712 0.1557 -0.0043 0.0133 -0.0756 0.1467 -0.0045 0.0088 -0.0889 0.1556 -0.0088 0.0135 -0.089 0.1378 -0.0089 0.0088 -0.0933 0.1334 -0.0045 0.0089 -0.1112 0.1379 -0.0088 0.0178 -0.1068 0.1155 -0.0044 0.0045 -0.1201 0.1245 -0.0088 0.0133 -0.12 0.1156 -0.009 0.0044 -0.129 0.1156 -0.0133 0.0089 -0.1289 0.0978 -0.0089 0.0045 -0.1334 0.0978 -0.0088 0.0044 -0.1468 0.0934 -0.0088 0.0089 -0.1512 0.0844 -0.0178 0.009 -0.1423 0.0711 -0.0088 0.0045 -0.1557 0.0711 -0.0133 0.0044 -0.1556 0.0623 -0.0045 0 -0.1689 0.0622 -0.0134 0.0044 -0.1734 0.0489 -0.0178 0.0045 -0.1644 0.0311 -0.0044 0 -0.1734 0.0355 -0.0134 0 -0.1777 0.0223 -0.0135 0 -0.169 0.0133 -0.0043 0 -0.1824 0.009 -0.0133 0c-0.6422,0 -1.2468,-0.1616 -1.7753,-0.4462l-0.0031 0.0104 0 0.0134 -0.0668 0.1957 -0.0043 0.0088 -0.0756 0.1911 -0.0045 0.0135 -0.0889 0.1866 -0.0045 0.009 -0.0889 0.1822 -0.0088 0.0134 -0.1023 0.1734 -0.0045 0.0088 -0.1111 0.1735 -0.0045 0.0088 -0.12 0.1646 -0.0088 0.0133 -0.1245 0.1555 -0.0045 0.009 -0.1335 0.1511 -0.0043 0.0045 -0.1423 0.1555 -0.0134 0.009 -0.1466 0.1378 -0.009 0.009 -0.1468 0.1288 -0.0088 0.0045 -0.16 0.1289 -0.0133 0.0089 -0.1646 0.1201 -0.0133 0.0044 -0.1735 0.1111 -0.0088 0.0045 -0.1778 0.1022 -0.009 0.0045 -0.1778 0.0889 -0.0044 0.0045 -0.1913 0.0889 -0.0177 0.0089 -0.1912 0.0711 -0.0088 0.0045 -0.1956 0.0666 -0.0135 0 -0.1999 0.0579 -0.0133 0.0045 -0.2046 0.0443 -0.009 0.0045 -0.2134 0.0356 -0.0133 0.0045 -0.2045 0.0221 -0.0089 0 -0.2179 0.0223 -0.0178 0 -0.2089 0 -0.0045 0c-2.4675,0 -4.4681,-1.9963 -4.4681,-4.4638 0,-1.9795 1.2871,-3.6581 3.07,-4.245l-0.2509 -0.6827c-0.3784,-0.8279 -0.4562,-1.2801 -0.6189,-1.7671 -0.1643,-0.4896 -0.3869,-1.1035 -0.7269,-1.5857 -0.0285,-0.0404 -0.2576,-0.4249 -0.4754,-0.7884 -0.1922,-0.3206 -0.9415,-0.9866 -0.9718,-1.0248 0.0198,0.1501 0.5783,1.3065 0.6776,1.7041 0.2186,0.8753 0.5174,1.7538 0.3959,2.246 0,0.9272 -0.1685,1.5332 -0.6931,2.4599 -0.523,0.9279 -1.1689,1.4518 -2.5791,2.0218l-0.2857 0.1161 -0.1813 -0.2494c-0.1889,-0.2604 -0.3594,-0.4278 -0.4973,-0.5217 -0.1397,-0.0943 -0.2371,-0.1181 -0.3263,-0.1191 -0.0771,0 -0.1602,0.0203 -0.2645,0.0756 -0.1035,0.0543 -0.2235,0.1452 -0.3516,0.2683 -0.2572,0.2465 -0.5422,0.6209 -0.8462,1.0483 -0.6126,0.8556 -1.2999,1.923 -2.2216,2.6735 -0.5708,0.4643 -1.2533,0.8077 -2.0473,0.8521l0.03 0.0326 0.0092 0.0119 0.0336 0.0424 0.0322 0.0352 0.0366 0.0399 0.0314 0.0302 0.069 0.0632 0.0244 0.0178 0.0355 0.0247 0.0128 0.0083 0.035 0.0153 0.0004 0 0.0409 0.0065 0.013 -0.0021 0.0034 -0.0004 0.0022 -0.0005 -0.0012 0.0005 0.0236 -0.0063c0.6072,-0.1868 1.2691,-0.2728 1.9628,-0.2728 1.8487,0.0016 3.9292,0.6086 5.8277,1.6649 1.8968,1.0576 3.6131,2.5668 4.696,4.4104 0.721,1.2281 1.0818,2.5994 1.0816,4.076 0.0007,1.0081 -0.2224,2.0645 -0.6658,3.1319 -0.3033,0.7301 -0.9833,1.8206 -1.5227,2.5649l0 0.0001zm10.5592 -4.9387c0.1137,-0.0709 0.9113,0.141 0.8335,0.6752l0 0.0346 -0.0035 0.0347 -0.0059 0.0331 -0.006 0.0346 -0.0094 0.033 -0.0118 0.0307 -0.0134 0.0311 -0.0311 0.0617 -0.0385 0.0579 -0.0213 0.0266 -0.0233 0.0273 -0.0246 0.025 -0.0272 0.0254 -0.0271 0.0232 -0.0287 0.021 -0.0618 0.0422 -0.033 0.0197 -0.0346 0.0173 -0.0346 0.0154 -0.037 0.0152 -0.0365 0.0138 -0.0367 0.0114 -0.0385 0.0114 -0.1216 0.0232 -0.0424 0.0039 -0.0424 0.002 -0.0426 0.0001c-0.4614,0 -0.8359,-0.303 -0.8359,-0.6753 0,-0.3745 0.3745,-0.6754 0.8359,-0.6754zm2.9408 -0.6367c0.3725,0 0.6754,0.2484 0.6754,0.5572l0 0.0271 -0.0074 0.0579 -0.0061 0.0271 -0.0078 0.0272 -0.0074 0.0248 -0.0119 0.027 -0.0114 0.0253 -0.0138 0.0251 -0.0306 0.0461 -0.0173 0.0231 -0.0192 0.0213 -0.0426 0.0424 -0.0211 0.0193 -0.0252 0.0174 -0.0233 0.0178 -0.0252 0.0172 -0.0539 0.0305 -0.0291 0.0119 -0.0286 0.0135 -0.0312 0.0117 -0.0305 0.0094 -0.0313 0.008 -0.0325 0.0074 -0.0312 0.0059 -0.0346 0.0059 -0.0325 0.004 -0.0351 0.0014 -0.0346 0c-0.3725,0 -0.6752,-0.2484 -0.6752,-0.5556 0,-0.3088 0.3027,-0.5573 0.6752,-0.5573z" /><path
         id="_126918832"
         class="fil1"
         d="M110.394 130.746l-0.014 -0.1405c0,0.5688 0.1321,1.2046 0.3224,1.7009 0.1272,0.3319 0.1821,0.5334 0.6726,0.9841 0.1025,0.0941 0.3058,0.2308 0.4345,0.2952 -0.0652,-0.2324 -0.3708,-1.038 -0.4905,-1.3956 -0.0861,-0.257 -0.1196,-0.5916 -0.1829,-0.8357 -0.1181,-0.4552 -0.4554,-0.3931 -0.7421,-0.6084z" /></g></g></svg>