<?xml version="1.0" encoding="UTF-8" standalone="no"?>
<!-- Created with Inkscape (http://www.inkscape.org/) -->

<svg
   xmlns:dc="http://purl.org/dc/elements/1.1/"
   xmlns:cc="http://creativecommons.org/ns#"
   xmlns:rdf="http://www.w3.org/1999/02/22-rdf-syntax-ns#"
   xmlns:svg="http://www.w3.org/2000/svg"
   xmlns="http://www.w3.org/2000/svg"
   xmlns:xlink="http://www.w3.org/1999/xlink"
   xmlns:sodipodi="http://sodipodi.sourceforge.net/DTD/sodipodi-0.dtd"
   xmlns:inkscape="http://www.inkscape.org/namespaces/inkscape"
   width="280mm"
   height="95mm"
   viewBox="0 0 992.12607 336.61399"
   id="svg2"
   version="1.1"
   inkscape:version="0.91 r13725"
   sodipodi:docname="sello.svg">
  <defs
     id="defs4">
    <linearGradient
       id="linearGradient3672">
      <stop
         id="stop3674"
         offset="0"
         style="stop-color:#ff6c00;stop-opacity:1;" />
      <stop
         id="stop3676"
         offset="1"
         style="stop-color:#ffcba4;stop-opacity:1;" />
    </linearGradient>
    <linearGradient
       id="linearGradient4037">
      <stop
         id="stop4039"
         offset="0"
         style="stop-color:#f7f8f7;stop-opacity:1;" />
      <stop
         id="stop4041"
         offset="1"
         style="stop-color:#e2a23a;stop-opacity:1;" />
    </linearGradient>
    <linearGradient
       id="linearGradient3093">
      <stop
         id="stop3095"
         offset="0"
         style="stop-color:#492200;stop-opacity:1;" />
      <stop
         style="stop-color:#018753;stop-opacity:1;"
         offset="0.52173913"
         id="stop3101" />
      <stop
         id="stop3097"
         offset="1"
         style="stop-color:#01a74b;stop-opacity:1;" />
    </linearGradient>
    <linearGradient
       y2="162.63451"
       x2="348.38281"
       y1="374.03418"
       x1="348.38281"
       gradientTransform="matrix(0.9331641,0,0,0.9331641,23.742547,583.86597)"
       gradientUnits="userSpaceOnUse"
       id="linearGradient11662"
       xlink:href="#linearGradient3093"
       inkscape:collect="always" />
    <linearGradient
       id="linearGradient3975">
      <stop
         style="stop-color:#f7f8f7;stop-opacity:0.51546389;"
         offset="0"
         id="stop3977" />
      <stop
         style="stop-color:#b8bdb9;stop-opacity:0;"
         offset="1"
         id="stop3979" />
    </linearGradient>
    <linearGradient
       id="linearGradient3841">
      <stop
         id="stop3843"
         offset="0"
         style="stop-color:#f3c293;stop-opacity:0.86666667;" />
      <stop
         id="stop3845"
         offset="1"
         style="stop-color:#ffffff;stop-opacity:0;" />
    </linearGradient>
    <linearGradient
       id="linearGradient3292">
      <stop
         id="stop3294"
         offset="0"
         style="stop-color:#8abee1;stop-opacity:1;" />
      <stop
         id="stop3296"
         offset="1"
         style="stop-color:#2a4d8e;stop-opacity:1;" />
    </linearGradient>
    <linearGradient
       id="linearGradient3147">
      <stop
         id="stop3149"
         offset="0"
         style="stop-color:#ffffff;stop-opacity:1;" />
      <stop
         style="stop-color:#ffffff;stop-opacity:1;"
         offset="0.60869563"
         id="stop3157" />
      <stop
         id="stop3151"
         offset="1"
         style="stop-color:#3440af;stop-opacity:1;" />
    </linearGradient>
    <radialGradient
       gradientUnits="userSpaceOnUse"
       gradientTransform="matrix(0.7088311,0,-2.6430437e-7,1.5076143,256.71538,-209.04938)"
       r="97.15625"
       fy="592.54327"
       fx="100.98215"
       cy="592.54327"
       cx="100.98215"
       id="radialGradient3300"
       xlink:href="#linearGradient3292"
       inkscape:collect="always" />
    <radialGradient
       gradientTransform="matrix(0.7380267,0.8149496,-2.3008425,2.0836617,916.16,-303.63634)"
       gradientUnits="userSpaceOnUse"
       r="66.918068"
       fy="430.62039"
       fx="-134.27684"
       cy="430.62039"
       cx="-134.27684"
       id="radialGradient3692"
       xlink:href="#linearGradient3672"
       inkscape:collect="always" />
    <radialGradient
       inkscape:collect="always"
       xlink:href="#linearGradient3292"
       id="radialGradient3300-5"
       cx="100.98215"
       cy="592.54327"
       fx="100.98215"
       fy="592.54327"
       r="97.15625"
       gradientTransform="matrix(0.7088311,0,-2.6430437e-7,1.5076143,256.71538,-209.04938)"
       gradientUnits="userSpaceOnUse" />
    <linearGradient
       inkscape:collect="always"
       xlink:href="#linearGradient3672"
       id="linearGradient3707"
       x1="-38.602322"
       y1="713.90552"
       x2="23.178837"
       y2="532.45459"
       gradientUnits="userSpaceOnUse"
       gradientTransform="translate(297.55881,-464.08254)" />
    <radialGradient
       inkscape:collect="always"
       xlink:href="#linearGradient3672"
       id="radialGradient3692-0"
       cx="-134.27684"
       cy="430.62039"
       fx="-134.27684"
       fy="430.62039"
       r="66.918068"
       gradientUnits="userSpaceOnUse"
       gradientTransform="matrix(0.7380267,0.8149496,-2.3008425,2.0836617,916.16,-303.63634)" />
    <linearGradient
       id="linearGradient3672-8">
      <stop
         style="stop-color:#ff6c00;stop-opacity:1;"
         offset="0"
         id="stop3674-4" />
      <stop
         style="stop-color:#ffc845;stop-opacity:1;"
         offset="1"
         id="stop3676-0" />
    </linearGradient>
  </defs>
  <sodipodi:namedview
     id="base"
     pagecolor="#ffffff"
     bordercolor="#666666"
     borderopacity="1.0"
     inkscape:pageopacity="0.0"
     inkscape:pageshadow="2"
     inkscape:zoom="0.35"
     inkscape:cx="336.24405"
     inkscape:cy="520"
     inkscape:document-units="px"
     inkscape:current-layer="layer1"
     showgrid="false"
     inkscape:window-width="1280"
     inkscape:window-height="1001"
     inkscape:window-x="1366"
     inkscape:window-y="0"
     inkscape:window-maximized="1"
     height="209mm" />
  <metadata
     id="metadata7">
    <rdf:RDF>
      <cc:Work
         rdf:about="">
        <dc:format>image/svg+xml</dc:format>
        <dc:type
           rdf:resource="http://purl.org/dc/dcmitype/StillImage" />
        <dc:title></dc:title>
      </cc:Work>
    </rdf:RDF>
  </metadata>
  <g
     inkscape:label="Layer 1"
     inkscape:groupmode="layer"
     id="layer1"
     transform="translate(0,-715.74837)">
    <g
       transform="matrix(4.4578522,0,0,4.4578522,7.780243,-3630.8087)"
       id="layer1-4"
       inkscape:label="Capa 1"
       inkscape:export-filename="/home/miguel/layer1-4.png"
       inkscape:export-xdpi="2024"
       inkscape:export-ydpi="2024">
      <g
         transform="matrix(1.4159844,0,0,1.4161688,-7.9309844,-549.05508)"
         id="g7365">
        <path
           style="fill:none;fill-opacity:1;stroke:#000000;stroke-width:0.35308826;stroke-miterlimit:4;stroke-dasharray:none;stroke-opacity:1"
           d="m 32.360529,1080.8525 c -12.264753,0 -22.216661,9.9583 -22.216659,22.223 0,12.2648 9.951906,22.2167 22.216659,22.2167 12.264753,0 22.223009,-9.9519 22.223009,-22.2167 0,-12.2647 -9.958256,-22.223 -22.223009,-22.223 z m 0,6.0874 c 8.904629,0 16.135644,7.231 16.135644,16.1356 0,8.9046 -7.231017,16.1293 -16.135644,16.1293 -8.904626,0 -16.129294,-7.2247 -16.129294,-16.1293 0,-8.9046 7.224668,-16.1356 16.129294,-16.1356 z"
           id="path5613"
           inkscape:connector-curvature="0" />
        <g
           id="g5615"
           transform="matrix(0.22415746,0,0,0.22414193,-34.156489,955.61413)">
          <path
             inkscape:export-ydpi="70"
             inkscape:export-xdpi="70"
             inkscape:export-filename="/home/odo/Desktop/logo2.png"
             d="m 279.76236,587.61314 1.33449,0.20872 1.32475,0.22265 1.31502,0.2644 1.30387,0.30614 1.29135,0.32006 1.27883,0.3618 1.26493,0.37571 1.24821,0.41747 1.23291,0.44529 1.21621,0.45922 1.19673,0.48703 1.17725,0.50096 2.29327,1.0854 2.20143,1.15499 1.06452,0.59836 1.03809,0.6262 1.01166,0.6262 0.98382,0.6401 0.95461,0.66795 0.92398,0.66795 0.89338,0.66793 0.86136,0.68186 0.82797,0.69577 0.79457,0.69578 0.7584,0.70969 0.72081,0.69577 0.68465,0.70969 0.64706,0.70968 0.60533,0.70969 0.56079,0.70969 0.52879,0.69577 0.48704,0.7097 0.43138,0.68185 0.38963,0.69578 0.34789,0.68186 0.30613,0.66793 0.25048,0.66795 0.20874,0.65402 0.13915,0.64011 0.11133,0.6262 0.0417,0.61228 0,0.59837 -0.0557,0.58445 -0.11132,0.55661 -0.1809,0.55662 -0.22265,0.51488 -0.29223,0.50095 -0.33396,0.48704 -0.41747,0.4453 -0.45921,0.43138 -0.52879,0.40354 -0.59836,0.37572 -0.66377,0.34789 -0.72499,0.32006 -0.79319,0.29222 -0.86136,0.25047 -0.93095,0.22265 -1.00052,0.19482 -1.07149,0.13915 -1.14385,0.12524 -1.2176,0.0696 -1.29275,0.0418 c -15.12193,0.6262 -29.70534,-6.80466 -38.91876,2.68568 -10.82901,10.64532 -22.46094,-4.21638 -12.34997,-14.7643 8.2296,-7.97356 25.32474,-1.1689 43.21864,1.60027 16.55243,2.2404 0.35345,-12.16211 -15.30144,-21.73594 z"
             style="font-style:normal;font-variant:normal;font-weight:normal;font-stretch:normal;letter-spacing:normal;word-spacing:normal;text-anchor:start;fill:#ffffff;fill-opacity:1;fill-rule:nonzero;stroke:#ffffff;stroke-width:0;stroke-linecap:butt;stroke-linejoin:miter;stroke-miterlimit:10.43299961;stroke-dasharray:none;stroke-dashoffset:0;stroke-opacity:1"
             id="path5617"
             inkscape:connector-curvature="0" />
          <path
             inkscape:export-ydpi="70"
             inkscape:export-xdpi="70"
             inkscape:export-filename="/home/odo/Desktop/logo2.png"
             d="m 279.76236,587.61314 1.33449,0.20872 1.32475,0.22265 1.31502,0.2644 1.30387,0.30614 1.29135,0.32006 1.27883,0.3618 1.26493,0.37571 1.24821,0.41747 1.23291,0.44529 1.21621,0.45922 1.19673,0.48703 1.17725,0.50096 2.29327,1.0854 2.20143,1.15499 1.06452,0.59836 1.03809,0.6262 1.01166,0.6262 0.98382,0.6401 0.95461,0.66795 0.92398,0.66795 0.89338,0.66793 0.86136,0.68186 0.82797,0.69577 0.79457,0.69578 0.7584,0.70969 0.72081,0.69577 0.68465,0.70969 0.64706,0.70968 0.60533,0.70969 0.56079,0.70969 0.52879,0.69577 0.48704,0.7097 0.43138,0.68185 0.38963,0.69578 0.34789,0.68186 0.30613,0.66793 0.25048,0.66795 0.20874,0.65402 0.13915,0.64011 0.11133,0.6262 0.0417,0.61228 0,0.59837 -0.0557,0.58445 -0.11132,0.55661 -0.1809,0.55662 -0.22265,0.51488 -0.29223,0.50095 -0.33396,0.48704 -0.41747,0.4453 -0.45921,0.43138 -0.52879,0.40354 -0.59836,0.37572 -0.66377,0.34789 -0.72499,0.32006 -0.79319,0.29222 -0.86136,0.25047 -0.93095,0.22265 -1.00052,0.19482 -1.07149,0.13915 -1.14385,0.12524 -1.2176,0.0696 -1.29275,0.0418 c -15.12193,0.6262 -29.70534,-6.80466 -38.91876,2.68568 -10.82901,10.64532 -22.46094,-4.21638 -12.34997,-14.7643 8.2296,-7.97356 25.32474,-1.1689 43.21864,1.60027 16.55243,2.2404 0.35345,-12.16211 -15.30144,-21.73594 z"
             style="font-style:normal;font-variant:normal;font-weight:normal;font-stretch:normal;letter-spacing:normal;word-spacing:normal;text-anchor:start;fill:none;stroke:#000000;stroke-width:1.27986991;stroke-linecap:butt;stroke-linejoin:miter;stroke-miterlimit:10.43299961;stroke-dasharray:none;stroke-dashoffset:0;stroke-opacity:1"
             id="path5619"
             inkscape:connector-curvature="0" />
          <path
             inkscape:export-ydpi="70"
             inkscape:export-xdpi="70"
             inkscape:export-filename="/home/odo/Desktop/logo2.png"
             d="m 284.58963,633.24193 0.16977,-0.38963 0.16003,-0.40355 0.15028,-0.40355 0.14333,-0.41746 0.27136,-0.86276 0.26438,-0.87668 0.26996,-0.87667 0.28945,-0.89059 0.15863,-0.4453 0.16699,-0.44528 0.17951,-0.43139 0.19482,-0.43138 0.20873,-0.43138 0.22682,-0.41746 0.2463,-0.41746 0.26857,-0.40355 0.28944,-0.38964 0.3145,-0.38962 0.34093,-0.36181 0.37014,-0.3618 0.39798,-0.34789 0.43139,-0.33397 0.46338,-0.32005 0.49956,-0.29223 0.53575,-0.27831 0.57471,-0.26439 0.30335,-0.12524 0.3131,-0.11133 0.32284,-0.12524 0.33397,-0.0974 c 9.12716,0.2644 6.71282,1.6142 12.07862,-2.42128 -1.4305,9.57383 -3.66951,14.05462 -13.14871,20.67837 -0.71804,1.15498 -1.43609,2.32389 -2.14716,3.47887"
             style="font-style:normal;font-variant:normal;font-weight:normal;font-stretch:normal;letter-spacing:normal;word-spacing:normal;text-anchor:start;fill:#a97158;fill-opacity:1;fill-rule:nonzero;stroke:#a97158;stroke-width:0;stroke-linecap:butt;stroke-linejoin:miter;stroke-miterlimit:10.43299961;stroke-dasharray:none;stroke-dashoffset:0;stroke-opacity:1"
             id="path5621"
             inkscape:connector-curvature="0" />
          <path
             inkscape:export-ydpi="70"
             inkscape:export-xdpi="70"
             inkscape:export-filename="/home/odo/Desktop/logo2.png"
             d="m 284.58963,633.24193 0.16977,-0.38963 0.16003,-0.40355 0.15028,-0.40355 0.14333,-0.41746 0.27136,-0.86276 0.26438,-0.87668 0.26996,-0.87667 0.28945,-0.89059 0.15863,-0.4453 0.16699,-0.44528 0.17951,-0.43139 0.19482,-0.43138 0.20873,-0.43138 0.22682,-0.41746 0.2463,-0.41746 0.26857,-0.40355 0.28944,-0.38964 0.3145,-0.38962 0.34093,-0.36181 0.37014,-0.3618 0.39798,-0.34789 0.43139,-0.33397 0.46338,-0.32005 0.49956,-0.29223 0.53575,-0.27831 0.57471,-0.26439 0.30335,-0.12524 0.3131,-0.11133 0.32284,-0.12524 0.33397,-0.0974 c 9.12716,0.2644 6.71282,1.6142 12.07862,-2.42128 -1.4305,9.57383 -3.66951,14.05462 -13.14871,20.67837 -0.71804,1.15498 -1.43609,2.32389 -2.14716,3.47887"
             style="font-style:normal;font-variant:normal;font-weight:normal;font-stretch:normal;letter-spacing:normal;word-spacing:normal;text-anchor:start;fill:#ffffff;fill-opacity:1;stroke:#000000;stroke-width:1.34028995;stroke-linecap:butt;stroke-linejoin:miter;stroke-miterlimit:10.43299961;stroke-dasharray:none;stroke-dashoffset:0;stroke-opacity:1"
             id="path5623"
             inkscape:connector-curvature="0" />
          <path
             inkscape:export-ydpi="70"
             inkscape:export-xdpi="70"
             inkscape:export-filename="/home/odo/Desktop/logo2.png"
             d="m 199.20575,623.20888 -0.82936,1.12715 -0.79179,1.14108 -0.75283,1.15498 -0.71803,1.16889 -0.67908,1.16891 -0.64428,1.18281 -0.60811,1.19672 -0.57193,1.19674 -0.53574,1.21064 -0.50096,1.19673 -0.46617,1.21065 -0.43138,1.21064 -0.39658,1.19673 -0.36181,1.19674 -0.3284,1.19672 -0.29362,1.18281 -0.26161,1.18282 -0.22821,1.1689 -0.19481,1.1689 -0.16142,1.14106 -0.13081,1.12716 -0.0974,1.11323 -0.0654,1.09933 -0.0348,1.0854 -0.003,1.05757 0.0278,1.02975 0.0584,1.01583 0.0891,0.988 0.11967,0.96016 0.1489,0.93233 0.17951,0.90452 0.20873,0.86275 0.23795,0.83493 0.26718,0.8071 0.29501,0.76535 0.32284,0.73752 0.35206,0.68185 0.37989,0.65403 0.40633,0.61229 0.43416,0.55661 0.462,0.52879 0.48843,0.47313 0.51348,0.41745 0.54131,0.37572 0.56636,0.32006 0.5928,0.2644 0.61785,0.22265 0.64289,0.15307 0.66794,0.11132 0.69161,0.0417 0.71664,-0.0278 0.7403,-0.0696 0.76535,-0.15307 0.78762,-0.20874 0.81126,-0.27831 0.83494,-0.34789 0.85579,-0.40355 0.87946,-0.48703 0.90172,-0.55662 0.92399,-0.64012 0.94486,-0.70968 0.96574,-0.79319 0.98799,-0.86275 1.00888,-0.94626 c 11.97425,-10.96537 16.30195,-26.60635 31.78847,-27.55261 17.74221,-1.41937 13.16403,-19.52339 -3.96312,-18.57713 -13.37276,1.15498 -20.15655,18.28491 -31.16925,33.4806 -10.47972,13.84588 -11.21307,-7.40303 -8.00556,-25.20091 z"
             style="font-style:normal;font-variant:normal;font-weight:normal;font-stretch:normal;letter-spacing:normal;word-spacing:normal;text-anchor:start;fill:#ffffff;fill-opacity:1;stroke:#000000;stroke-width:1.43824494;stroke-linecap:butt;stroke-linejoin:miter;stroke-miterlimit:10.43299961;stroke-dasharray:none;stroke-dashoffset:0;stroke-opacity:1"
             id="path5625"
             inkscape:connector-curvature="0" />
          <path
             inkscape:export-ydpi="70"
             inkscape:export-xdpi="70"
             inkscape:export-filename="/home/odo/Desktop/logo2.png"
             d="m 215.33795,662.22784 -0.096,0.0278 -0.0932,0.0278 -0.0932,0.0139 -0.0918,0.0139 -0.0905,0 -0.0891,0 -0.0891,0 -0.0863,-0.0139 -0.17116,-0.0278 -0.16837,-0.0417 -0.16281,-0.0696 -0.16142,-0.0696 -0.15724,-0.0974 -0.15447,-0.11133 -0.15307,-0.11132 -0.15029,-0.13916 -0.14889,-0.13915 -0.1489,-0.13916 -0.14611,-0.16699 -0.14611,-0.15307 -0.14612,-0.1809 -0.14472,-0.16697 -0.29222,-0.36181 -0.2964,-0.37572 -0.30196,-0.37572 -0.31032,-0.37572 -0.15864,-0.1809 -0.16281,-0.16698 -0.16558,-0.1809 -0.16977,-0.15307 -0.17395,-0.15307 -0.17812,-0.15307 c 14.71977,3.85458 18.12906,-25.02 26.47278,-13.55366 14.54026,-5.90016 10.75107,-19.28683 10.03443,-25.63228 6.53331,6.44286 5.01096,8.04314 8.32145,15.2931 -0.89615,-4.91217 -0.71804,-7.41695 0.53296,-11.53593 3.84762,-6.80466 5.81666,-3.39537 12.34998,-14.7643 -0.62481,8.05705 -4.74518,13.95721 -9.93148,21.74986 6.17569,-8.96156 17.17725,-14.41641 18.5201,-26.85683 1.70047,9.75473 -0.0877,18.17359 -2.95148,20.41398 20.1329,7.86223 23.62289,21.37415 29.793,40.52182 -5.27813,16.37293 0.71666,27.64724 2.6843,32.20733 -9.39294,9.48618 -10.4686,7.43086 -19.32301,9.12716 -11.18664,-0.80432 -12.70899,-9.12716 -19.05861,4.83144 1.96765,-6.71282 -0.35763,-8.58723 -0.53714,-12.88153 -4.83284,13.9586 -11.54566,16.37153 -17.71578,19.323 30.15203,-31.84692 -13.77909,-60.48355 -34.09287,-54.22159 z"
             style="font-style:normal;font-variant:normal;font-weight:normal;font-stretch:normal;letter-spacing:normal;word-spacing:normal;text-anchor:start;fill:#ffffff;fill-opacity:1;fill-rule:nonzero;stroke:#000000;stroke-width:1.27986991;stroke-linecap:butt;stroke-linejoin:miter;stroke-miterlimit:10.43299961;stroke-dasharray:none;stroke-dashoffset:0;stroke-opacity:1"
             id="path5627"
             inkscape:connector-curvature="0" />
          <path
             inkscape:export-ydpi="70"
             inkscape:export-xdpi="70"
             inkscape:export-filename="/home/odo/Desktop/logo2.png"
             d="m 291.03666,644.77785 -0.0153,0.57053 -0.0417,0.55662 -0.0696,0.55662 -0.0974,0.5427 -0.12245,0.52879 -0.14889,0.52879 -0.17256,0.50095 -0.1976,0.50096 -0.22126,0.48704 -0.24213,0.47313 -0.26578,0.47312 -0.28666,0.4453 -0.30613,0.43138 -0.32702,0.41747 -0.3465,0.38962 -0.36458,0.38963 -0.38129,0.36181 -0.39937,0.34789 -0.41607,0.32006 -0.43138,0.30613 -0.44669,0.29222 -0.46199,0.2644 -0.47452,0.23656 -0.48704,0.22265 -0.49957,0.19482 -0.51208,0.1809 -0.52183,0.15307 -0.53297,0.11132 -0.5413,0.0974 -0.55106,0.0696 -0.5594,0.0417 -0.56496,0.0278 c -6.07272,0 -11.00853,-4.93999 -11.00853,-11.02104 0,-6.06714 4.93581,-10.99322 11.00853,-10.99322 6.07687,0 11.00712,4.92608 11.00712,10.99322 z"
             style="font-style:normal;font-variant:normal;font-weight:normal;font-stretch:normal;letter-spacing:normal;word-spacing:normal;text-anchor:start;fill:#ffffff;fill-opacity:1;fill-rule:nonzero;stroke:#000000;stroke-width:1.27986991;stroke-linecap:butt;stroke-linejoin:miter;stroke-miterlimit:10.43299961;stroke-dasharray:none;stroke-dashoffset:0;stroke-opacity:1"
             id="path5629"
             inkscape:connector-curvature="0" />
          <path
             inkscape:export-ydpi="70"
             inkscape:export-xdpi="70"
             inkscape:export-filename="/home/odo/Desktop/logo2.png"
             d="m 273.04954,651.49902 -0.0181,0.69576 -0.0515,0.68187 -0.0849,0.66794 -0.11828,0.65402 -0.15029,0.65403 -0.1809,0.64011 -0.21152,0.6262 -0.23935,0.59837 -0.26996,0.59835 -0.29639,0.58446 -0.32284,0.55662 -0.34928,0.54269 -0.37433,0.5288 -0.39798,0.50095 -0.42163,0.48705 -0.4453,0.47312 -0.46617,0.44529 -0.48704,0.41747 -0.50652,0.40355 -0.52601,0.37571 -0.54549,0.34789 -0.56078,0.32006 -0.57889,0.29222 -0.5942,0.27831 -0.60949,0.23657 -0.62341,0.20872 -0.63733,0.1809 -0.64985,0.15307 -0.6596,0.11133 -0.67211,0.0835 -0.68047,0.0557 -0.6916,0.0139 c -7.40858,0 -13.42007,-6.01147 -13.42007,-13.4145 0,-7.41695 6.01149,-13.42842 13.42007,-13.42842 7.40999,0 13.42147,6.01147 13.42147,13.42842 z"
             style="font-style:normal;font-variant:normal;font-weight:normal;font-stretch:normal;letter-spacing:normal;word-spacing:normal;text-anchor:start;fill:#ffffff;fill-opacity:1;fill-rule:nonzero;stroke:#000000;stroke-width:1.27986991;stroke-linecap:butt;stroke-linejoin:miter;stroke-miterlimit:10.43299961;stroke-dasharray:none;stroke-dashoffset:0;stroke-opacity:1"
             id="path5631"
             inkscape:connector-curvature="0" />
          <path
             inkscape:export-ydpi="70"
             inkscape:export-xdpi="70"
             inkscape:export-filename="/home/odo/Desktop/logo2.png"
             d="m 269.0825,655.31829 -0.004,0.12524 -0.01,0.13916 -0.0167,0.12524 -0.0236,0.12524 -0.0306,0.12524 -0.0362,0.11132 -0.0417,0.12524 -0.0487,0.11132 -0.0529,0.11133 -0.0598,0.11132 -0.064,0.11132 -0.071,0.0974 -0.0738,0.11133 -0.0807,0.0974 -0.0835,0.0835 -0.0891,0.0974 -0.0932,0.0835 -0.0974,0.0835 -0.10158,0.0696 -0.10576,0.0696 -0.10854,0.0696 -0.11271,0.0557 -0.1155,0.0557 -0.11827,0.0557 -0.12246,0.0417 -0.12524,0.0417 -0.12663,0.0417 -0.13081,0.0278 -0.1322,0.0139 -0.13359,0.0278 -0.13637,0 -0.13915,0.0139 c -1.48339,0 -2.68568,-1.15499 -2.68568,-2.56045 0,-1.40546 1.20229,-2.54652 2.68568,-2.54652 1.48477,0 2.68569,1.14106 2.68569,2.54652 z"
             style="font-style:normal;font-variant:normal;font-weight:normal;font-stretch:normal;letter-spacing:normal;word-spacing:normal;text-anchor:start;fill:#000000;fill-opacity:1;fill-rule:nonzero;stroke:#000000;stroke-width:0;stroke-linecap:butt;stroke-linejoin:miter;stroke-miterlimit:10.43299961;stroke-dasharray:none;stroke-dashoffset:0;stroke-opacity:1"
             id="path5633"
             inkscape:connector-curvature="0" />
          <path
             inkscape:export-ydpi="70"
             inkscape:export-xdpi="70"
             inkscape:export-filename="/home/odo/Desktop/logo2.png"
             d="m 286.965,648.22889 -0.003,0.13915 -0.0111,0.13916 -0.0153,0.12523 -0.0223,0.13915 -0.0292,0.12524 -0.0348,0.12524 -0.0403,0.12524 -0.0459,0.12524 -0.0515,0.11133 -0.0557,0.12524 -0.0612,0.11132 -0.0668,0.11132 -0.071,0.0974 -0.0765,0.11133 -0.0807,0.0974 -0.0849,0.0835 -0.0877,0.0974 -0.0932,0.0835 -0.0974,0.0696 -0.10019,0.0835 -0.10297,0.0696 -0.10714,0.0696 -0.10995,0.0557 -0.1127,0.0557 -0.11689,0.0417 -0.11828,0.0417 -0.12107,0.0417 -0.12385,0.0278 -0.12524,0.0278 -0.12802,0.0139 -0.12942,0.0139 -0.1308,0 c -1.40824,0 -2.54931,-1.21065 -2.54931,-2.68568 0,-1.47504 1.14107,-2.68569 2.54931,-2.68569 1.40824,0 2.55488,1.21065 2.55488,2.68569 z"
             style="font-style:normal;font-variant:normal;font-weight:normal;font-stretch:normal;letter-spacing:normal;word-spacing:normal;text-anchor:start;fill:#000000;fill-opacity:1;fill-rule:nonzero;stroke:#000000;stroke-width:0;stroke-linecap:butt;stroke-linejoin:miter;stroke-miterlimit:10.43299961;stroke-dasharray:none;stroke-dashoffset:0;stroke-opacity:1"
             id="path5635"
             inkscape:connector-curvature="0" />
          <path
             inkscape:export-ydpi="70"
             inkscape:export-xdpi="70"
             inkscape:export-filename="/home/odo/Desktop/logo2.png"
             d="m 291.84098,699.1372 -0.004,0.11689 -0.0111,0.11689 -0.0181,0.11411 -0.0237,0.11272 -0.032,0.10993 -0.0376,0.10854 -0.0445,0.10576 -0.0501,0.10436 -0.057,0.1002 -0.0612,0.0988 -0.0682,0.096 -0.0737,0.0919 -0.0779,0.0904 -0.0835,0.0863 -0.0891,0.0821 -0.0932,0.0793 -0.0974,0.0752 -0.10298,0.0724 -0.10576,0.0682 -0.10992,0.0626 -0.1155,0.0598 -0.11689,0.0557 -0.12246,0.0501 -0.12384,0.0459 -0.12803,0.0404 -0.1308,0.0362 -0.13359,0.0306 -0.13637,0.025 -0.13916,0.0209 -0.14055,0.0139 -0.14333,0.008 -0.14471,0.004 c -1.55993,0 -2.82067,-1.02278 -2.82067,-2.28353 0,-1.26074 1.26074,-2.27795 2.82067,-2.27795 1.55575,0 2.81649,1.01721 2.81649,2.27795 z"
             style="font-style:normal;font-variant:normal;font-weight:normal;font-stretch:normal;letter-spacing:normal;word-spacing:normal;text-anchor:start;fill:#000000;fill-opacity:1;fill-rule:nonzero;stroke:#000000;stroke-width:0;stroke-linecap:butt;stroke-linejoin:miter;stroke-miterlimit:10.43299961;stroke-dasharray:none;stroke-dashoffset:0;stroke-opacity:1"
             id="path5637"
             inkscape:connector-curvature="0" />
          <path
             inkscape:export-ydpi="70"
             inkscape:export-xdpi="70"
             inkscape:export-filename="/home/odo/Desktop/logo2.png"
             d="m 301.23391,696.58789 -0.003,0.096 -0.01,0.096 -0.0139,0.0946 -0.0209,0.0919 -0.025,0.0918 -0.0306,0.0891 -0.0362,0.0863 -0.0403,0.0863 -0.0459,0.0835 -0.0501,0.0807 -0.0557,0.0793 -0.0584,0.0752 -0.064,0.0738 -0.0682,0.071 -0.071,0.0682 -0.0765,0.0654 -0.0793,0.0626 -0.0821,0.0598 -0.0863,0.0557 -0.0891,0.0529 -0.0932,0.0487 -0.096,0.0445 -0.0974,0.0417 -0.10158,0.0376 -0.10437,0.0334 -0.10576,0.0306 -0.10854,0.0251 -0.10993,0.0209 -0.1127,0.0167 -0.11411,0.0111 -0.1155,0.008 -0.11828,0.001 c -1.25519,0 -2.27797,-0.84189 -2.27797,-1.87998 0,-1.0381 1.02278,-1.88137 2.27797,-1.88137 1.26073,0 2.28352,0.84327 2.28352,1.88137 z"
             style="font-style:normal;font-variant:normal;font-weight:normal;font-stretch:normal;letter-spacing:normal;word-spacing:normal;text-anchor:start;fill:#000000;fill-opacity:1;fill-rule:nonzero;stroke:#000000;stroke-width:0;stroke-linecap:butt;stroke-linejoin:miter;stroke-miterlimit:10.43299961;stroke-dasharray:none;stroke-dashoffset:0;stroke-opacity:1"
             id="path5639"
             inkscape:connector-curvature="0" />
          <path
             inkscape:export-ydpi="70"
             inkscape:export-xdpi="70"
             inkscape:export-filename="/home/odo/Desktop/logo2.png"
             d="m 289.78009,704.51831 c -6.61958,1.69073 -18.09566,-7.43085 -22.06852,-19.20473"
             style="font-style:normal;font-variant:normal;font-weight:normal;font-stretch:normal;letter-spacing:normal;word-spacing:normal;text-anchor:start;fill:none;stroke:#000000;stroke-width:1.00840104;stroke-linecap:butt;stroke-linejoin:miter;stroke-miterlimit:10.43299961;stroke-dasharray:none;stroke-dashoffset:0;stroke-opacity:1"
             id="path5641"
             inkscape:connector-curvature="0" />
        </g>
        <g
           id="g5643"
           transform="matrix(0.26231426,0,0,0.2622486,16.95113,994.08986)"
           inkscape:export-filename="/home/odo/Desktop/logo2.png"
           inkscape:export-xdpi="70"
           inkscape:export-ydpi="70">
          <path
             d="m 113.1899,396.58939 1.46249,0.4125 1.39999,0.44999 1.34999,0.5 1.28749,0.55 1.23749,0.57499 1.17499,0.625 1.1375,0.6625 1.07499,0.69999 1.01249,0.7375 0.975,0.76249 0.92499,0.8125 0.8625,0.83749 0.82499,0.8625 0.775,0.89999 0.73749,0.92499 0.675,0.95 0.63749,0.97499 0.6,1.0125 0.55,1.02499 0.51249,1.04999 0.8875,2.14999 0.73749,2.23748 0.5875,2.29624 0.4375,2.34873 0.29999,2.39249 0.1625,2.42373 0.05,2.44749 -0.0625,2.45998 -0.1875,2.46124 -0.27499,2.45373 -0.3875,2.43623 -0.4625,2.40749 -0.55,2.36998 -0.61249,2.31999 -0.7,2.26249 -0.74999,2.19373 -0.8,2.11499 -0.84999,2.02498 -0.8875,1.92624 -0.92499,1.81624 -0.93749,1.69749 -0.975,1.56749 c -4.22497,6.16246 -53.278407,-8.33495 -53.278407,-19.04738 0.584996,-44.32346 23.953597,-49.26093 40.265997,-45.08596 z"
             style="font-style:normal;font-variant:normal;font-weight:normal;font-stretch:normal;letter-spacing:normal;word-spacing:normal;text-anchor:start;fill:#000000;fill-opacity:1;fill-rule:nonzero;stroke:#000000;stroke-width:0;stroke-linecap:butt;stroke-linejoin:miter;stroke-miterlimit:10.43299961;stroke-dasharray:none;stroke-dashoffset:0;stroke-opacity:1"
             id="path5645"
             inkscape:connector-curvature="0" />
          <path
             d="m 113.1899,396.58939 1.46249,0.4125 1.39999,0.44999 1.34999,0.5 1.28749,0.55 1.23749,0.57499 1.17499,0.625 1.1375,0.6625 1.07499,0.69999 1.01249,0.7375 0.975,0.76249 0.92499,0.8125 0.8625,0.83749 0.82499,0.8625 0.775,0.89999 0.73749,0.92499 0.675,0.95 0.63749,0.97499 0.6,1.0125 0.55,1.02499 0.51249,1.04999 0.8875,2.14999 0.73749,2.23748 0.5875,2.29624 0.4375,2.34873 0.29999,2.39249 0.1625,2.42373 0.05,2.44749 -0.0625,2.45998 -0.1875,2.46124 -0.27499,2.45373 -0.3875,2.43623 -0.4625,2.40749 -0.55,2.36998 -0.61249,2.31999 -0.7,2.26249 -0.74999,2.19373 -0.8,2.11499 -0.84999,2.02498 -0.8875,1.92624 -0.92499,1.81624 -0.93749,1.69749 -0.975,1.56749 c -4.22497,6.16246 -53.278407,-8.33495 -53.278407,-19.04738 0.584996,-44.32346 23.953597,-49.26093 40.265997,-45.08596 z"
             style="font-style:normal;font-variant:normal;font-weight:normal;font-stretch:normal;letter-spacing:normal;word-spacing:normal;text-anchor:start;fill:none;stroke:#000000;stroke-width:1.14543223;stroke-linecap:butt;stroke-linejoin:miter;stroke-miterlimit:10.43299961;stroke-dasharray:none;stroke-dashoffset:0;stroke-opacity:1"
             id="path5647"
             inkscape:connector-curvature="0" />
          <path
             d="m 80.365106,415.05177 0.05,-0.1125 0.075,-0.125 0.174999,-0.27499 0.224998,-0.3 0.274998,-0.3375 0.299999,-0.35 0.349997,-0.3625 0.387498,-0.38749 0.424997,-0.3875 0.462497,-0.4 0.499997,-0.4 0.524997,-0.38749 0.562496,-0.3875 0.587496,-0.3625 0.624996,-0.35 0.637496,-0.32499 0.674996,-0.3 0.687495,-0.275 0.724996,-0.2375 0.737495,-0.1875 0.749995,-0.15 0.774995,-0.1 0.399998,-0.025 0.399997,-0.0125 0.399998,0 0.399997,0.0125 0.412497,0.0375 0.412498,0.0375 0.412497,0.0625 0.424997,0.0875 0.412498,0.1 0.424997,0.1125 0.424997,0.1375 0.424998,0.1625 0.424997,0.175 0.437497,0.1875 0.424997,0.225 0.437498,0.23749 0.437497,0.2625 0.437497,0.2875 0.424997,0.3125 0.437497,0.325 0.437498,0.36249 0.437497,0.3875 c 3.46248,3.04998 3.83747,2.66248 8.92494,2.16249 17.49989,-2.64999 20.54987,12.68617 15.8374,29.93731 -3.76248,12.34367 -1.24999,20.05237 -26.662328,13.40241 -16.149897,-4.22872 -31.19605,-17.22114 -17.899885,-42.47723 z"
             style="font-style:normal;font-variant:normal;font-weight:normal;font-stretch:normal;letter-spacing:normal;word-spacing:normal;text-anchor:start;fill:#ffffff;fill-opacity:1;fill-rule:nonzero;stroke:#ffffff;stroke-width:0;stroke-linecap:butt;stroke-linejoin:miter;stroke-miterlimit:10.43299961;stroke-dasharray:none;stroke-dashoffset:0;stroke-opacity:1"
             id="path5649"
             inkscape:connector-curvature="0" />
          <path
             d="m 102.01497,421.90423 -0.0125,0.52874 -0.05,0.5225 -0.0625,0.51375 -0.0875,0.50624 -0.1125,0.49625 -0.1375,0.48875 -0.1625,0.4775 -0.1875,0.46624 -0.2125,0.455 -0.225,0.44375 -0.24999,0.42999 -0.2625,0.4175 -0.2875,0.4025 -0.299998,0.38875 -0.324998,0.37249 -0.337498,0.3575 -0.362497,0.34 -0.374998,0.3225 -0.387498,0.30625 -0.399997,0.28624 -0.424997,0.2675 -0.424998,0.2475 -0.437497,0.2275 -0.462497,0.205 -0.462497,0.185 -0.474997,0.16125 -0.487497,0.13874 -0.499996,0.115 -0.512497,0.09 -0.512497,0.065 -0.524997,0.04 -0.524996,0.0138 c -5.674964,0 -10.274934,-4.60497 -10.274934,-10.27868 0,-5.67747 4.59997,-10.27744 10.274934,-10.27744 5.674964,0 10.287437,4.59997 10.287437,10.27744 z"
             style="font-style:normal;font-variant:normal;font-weight:normal;font-stretch:normal;letter-spacing:normal;word-spacing:normal;text-anchor:start;fill:#ffffff;fill-opacity:1;fill-rule:nonzero;stroke:#ffffff;stroke-width:0;stroke-linecap:butt;stroke-linejoin:miter;stroke-miterlimit:10.43299961;stroke-dasharray:none;stroke-dashoffset:0;stroke-opacity:1"
             id="path5651"
             inkscape:connector-curvature="0" />
          <path
             d="m 102.01497,421.90423 -0.0125,0.52874 -0.05,0.5225 -0.0625,0.51375 -0.0875,0.50624 -0.1125,0.49625 -0.1375,0.48875 -0.1625,0.4775 -0.1875,0.46624 -0.2125,0.455 -0.225,0.44375 -0.24999,0.42999 -0.2625,0.4175 -0.2875,0.4025 -0.299998,0.38875 -0.324998,0.37249 -0.337498,0.3575 -0.362497,0.34 -0.374998,0.3225 -0.387498,0.30625 -0.399997,0.28624 -0.424997,0.2675 -0.424998,0.2475 -0.437497,0.2275 -0.462497,0.205 -0.462497,0.185 -0.474997,0.16125 -0.487497,0.13874 -0.499996,0.115 -0.512497,0.09 -0.512497,0.065 -0.524997,0.04 -0.524996,0.0138 c -5.674964,0 -10.274934,-4.60497 -10.274934,-10.27868 0,-5.67747 4.59997,-10.27744 10.274934,-10.27744 5.674964,0 10.287437,4.59997 10.287437,10.27744 z"
             style="font-style:normal;font-variant:normal;font-weight:normal;font-stretch:normal;letter-spacing:normal;word-spacing:normal;text-anchor:start;fill:none;stroke:#000000;stroke-width:0.96400172;stroke-linecap:butt;stroke-linejoin:miter;stroke-miterlimit:10.43299961;stroke-dasharray:none;stroke-dashoffset:0;stroke-opacity:1"
             id="path5653"
             inkscape:connector-curvature="0" />
          <path
             d="m 124.03983,428.41294 -0.025,0.61999 -0.0375,0.6125 -0.075,0.60249 -0.1125,0.59375 -0.1375,0.58375 -0.1625,0.57124 -0.1875,0.56 -0.2125,0.5475 -0.2375,0.53499 -0.27499,0.51875 -0.2875,0.505 -0.3125,0.48999 -0.3375,0.4725 -0.3625,0.455 -0.37499,0.43749 -0.4,0.41875 -0.4125,0.39875 -0.4375,0.38 -0.46249,0.35749 -0.475,0.33625 -0.4875,0.31375 -0.49999,0.29 -0.525,0.26625 -0.525,0.2425 -0.54999,0.21499 -0.5625,0.19 -0.575,0.1625 -0.57499,0.135 -0.6,0.10625 -0.59999,0.0763 -0.6125,0.0462 -0.625,0.0163 c -6.64995,0 -12.04992,-5.40122 -12.04992,-12.05617 0,-6.65496 5.39997,-12.04868 12.04992,-12.04868 6.66246,0 12.06243,5.39372 12.06243,12.04868 z"
             style="font-style:normal;font-variant:normal;font-weight:normal;font-stretch:normal;letter-spacing:normal;word-spacing:normal;text-anchor:start;fill:#ffffff;fill-opacity:1;fill-rule:nonzero;stroke:#ffffff;stroke-width:0;stroke-linecap:butt;stroke-linejoin:miter;stroke-miterlimit:10.43299961;stroke-dasharray:none;stroke-dashoffset:0;stroke-opacity:1"
             id="path5655"
             inkscape:connector-curvature="0" />
          <path
             d="m 124.03983,428.41294 -0.025,0.61999 -0.0375,0.6125 -0.075,0.60249 -0.1125,0.59375 -0.1375,0.58375 -0.1625,0.57124 -0.1875,0.56 -0.2125,0.5475 -0.2375,0.53499 -0.27499,0.51875 -0.2875,0.505 -0.3125,0.48999 -0.3375,0.4725 -0.3625,0.455 -0.37499,0.43749 -0.4,0.41875 -0.4125,0.39875 -0.4375,0.38 -0.46249,0.35749 -0.475,0.33625 -0.4875,0.31375 -0.49999,0.29 -0.525,0.26625 -0.525,0.2425 -0.54999,0.21499 -0.5625,0.19 -0.575,0.1625 -0.57499,0.135 -0.6,0.10625 -0.59999,0.0763 -0.6125,0.0462 -0.625,0.0163 c -6.64995,0 -12.04992,-5.40122 -12.04992,-12.05617 0,-6.65496 5.39997,-12.04868 12.04992,-12.04868 6.66246,0 12.06243,5.39372 12.06243,12.04868 z"
             style="font-style:normal;font-variant:normal;font-weight:normal;font-stretch:normal;letter-spacing:normal;word-spacing:normal;text-anchor:start;fill:none;stroke:#000000;stroke-width:0.86179489;stroke-linecap:butt;stroke-linejoin:miter;stroke-miterlimit:10.43299961;stroke-dasharray:none;stroke-dashoffset:0;stroke-opacity:1"
             id="path5657"
             inkscape:connector-curvature="0" />
          <path
             d="m 88.352554,419.1305 0,0.10625 -0.0125,0.10374 -0.0125,0.1025 -0.0125,0.10125 -0.025,0.0987 -0.025,0.0975 -0.0375,0.0962 -0.0375,0.0925 -0.0375,0.0913 -0.05,0.0888 -0.05,0.085 -0.05,0.0838 -0.0625,0.08 -0.05,0.0775 -0.075,0.075 -0.0625,0.0713 -0.075,0.0675 -0.075,0.0637 -0.075,0.0613 -0.075,0.0575 -0.0875,0.0537 -0.0875,0.0488 -0.0875,0.045 -0.0875,0.0413 -0.1,0.0375 -0.0875,0.0312 -0.1,0.0275 -0.1,0.0238 -0.1,0.0175 -0.1,0.0138 -0.112499,0.007 -0.1,0.002 c -1.137493,0 -2.049987,-0.91749 -2.049987,-2.05123 0,-1.1275 0.912494,-2.04499 2.049987,-2.04499 1.137492,0 2.049986,0.91749 2.049986,2.04499 z"
             style="font-style:normal;font-variant:normal;font-weight:normal;font-stretch:normal;letter-spacing:normal;word-spacing:normal;text-anchor:start;fill:#000000;fill-opacity:1;fill-rule:nonzero;stroke:#000000;stroke-width:0;stroke-linecap:butt;stroke-linejoin:miter;stroke-miterlimit:10.43299961;stroke-dasharray:none;stroke-dashoffset:0;stroke-opacity:1"
             id="path5659"
             inkscape:connector-curvature="0" />
          <path
             d="m 106.67744,424.91671 0,0.10625 -0.0125,0.10375 -0.0125,0.1025 -0.0125,0.10125 -0.025,0.0987 -0.025,0.0975 -0.0375,0.095 -0.0375,0.0937 -0.0375,0.0913 -0.05,0.0875 -0.05,0.0863 -0.05,0.0838 -0.0625,0.08 -0.05,0.0775 -0.075,0.075 -0.0625,0.0713 -0.075,0.0675 -0.075,0.0637 -0.075,0.0613 -0.075,0.0575 -0.0875,0.0537 -0.0875,0.0488 -0.0875,0.045 -0.0875,0.0412 -0.1,0.0362 -0.0875,0.0325 -0.1,0.0275 -0.1,0.0238 -0.1,0.0175 -0.1,0.0137 -0.1125,0.007 -0.1,0.002 c -1.13749,0 -2.04999,-0.9175 -2.04999,-2.05124 0,-1.13249 0.9125,-2.04999 2.04999,-2.04999 1.13749,0 2.04999,0.9175 2.04999,2.04999 z"
             style="font-style:normal;font-variant:normal;font-weight:normal;font-stretch:normal;letter-spacing:normal;word-spacing:normal;text-anchor:start;fill:#000000;fill-opacity:1;fill-rule:nonzero;stroke:#000000;stroke-width:0;stroke-linecap:butt;stroke-linejoin:miter;stroke-miterlimit:10.43299961;stroke-dasharray:none;stroke-dashoffset:0;stroke-opacity:1"
             id="path5661"
             inkscape:connector-curvature="0" />
          <path
             d="m 81.115101,429.38043 -0.424998,0.17625 -0.399997,0.18875 -0.387497,0.2025 -0.374998,0.21375 -0.362498,0.22624 -0.337498,0.2375 -0.324998,0.24875 -0.312498,0.26 -0.299998,0.26875 -0.287498,0.28 -0.262498,0.28874 -0.262498,0.29875 -0.237499,0.30625 -0.224998,0.315 -0.412498,0.65249 -0.362497,0.68125 -0.312498,0.70624 -0.262499,0.72875 -0.212498,0.74625 -0.174999,0.76249 -0.125,0.77375 -0.0875,0.78249 -0.0375,0.79 -0.0125,0.79124 0.0375,0.79 0.0625,0.78749 0.112499,0.78 0.124999,0.76874 0.174999,0.75625 0.187499,0.73874 0.224998,0.72 0.249999,0.69499 0.262498,0.67 0.299998,0.63999 0.312498,0.6075 0.324998,0.57125 0.349998,0.53249 0.374998,0.49 0.374997,0.44375 c 8.512446,7.8762 30.112311,8.11494 35.499771,2.00623 1.74999,-2.10373 3.14998,-6.54245 1.46249,-9.21744 -3.48747,-5.89371 -25.712333,-16.67489 -33.93728,-13.70616 z"
             style="font-style:normal;font-variant:normal;font-weight:normal;font-stretch:normal;letter-spacing:normal;word-spacing:normal;text-anchor:start;fill:#ffffff;fill-opacity:1;fill-rule:nonzero;stroke:#ffba00;stroke-width:0;stroke-linecap:butt;stroke-linejoin:miter;stroke-miterlimit:10.43299961;stroke-dasharray:none;stroke-dashoffset:0;stroke-opacity:1"
             id="path5663"
             inkscape:connector-curvature="0" />
          <path
             d="m 81.115101,429.38043 -0.424998,0.17625 -0.399997,0.18875 -0.387497,0.2025 -0.374998,0.21375 -0.362498,0.22624 -0.337498,0.2375 -0.324998,0.24875 -0.312498,0.26 -0.299998,0.26875 -0.287498,0.28 -0.262498,0.28874 -0.262498,0.29875 -0.237499,0.30625 -0.224998,0.315 -0.412498,0.65249 -0.362497,0.68125 -0.312498,0.70624 -0.262499,0.72875 -0.212498,0.74625 -0.174999,0.76249 -0.125,0.77375 -0.0875,0.78249 -0.0375,0.79 -0.0125,0.79124 0.0375,0.79 0.0625,0.78749 0.112499,0.78 0.124999,0.76874 0.174999,0.75625 0.187499,0.73874 0.224998,0.72 0.249999,0.69499 0.262498,0.67 0.299998,0.63999 0.312498,0.6075 0.324998,0.57125 0.349998,0.53249 0.374998,0.49 0.374997,0.44375 c 8.512446,7.8762 30.112311,8.11494 35.499771,2.00623 1.74999,-2.10373 3.14998,-6.54245 1.46249,-9.21744 -3.48747,-5.89371 -25.712333,-16.67489 -33.93728,-13.70616 z"
             style="font-style:normal;font-variant:normal;font-weight:normal;font-stretch:normal;letter-spacing:normal;word-spacing:normal;text-anchor:start;fill:none;stroke:#000000;stroke-width:0.86179489;stroke-linecap:butt;stroke-linejoin:miter;stroke-miterlimit:10.43299961;stroke-dasharray:none;stroke-dashoffset:0;stroke-opacity:1"
             id="path5665"
             inkscape:connector-curvature="0" />
          <path
             d="m 80.402605,452.07029 c 8.687445,1.52874 25.212335,-0.0975 32.737295,-6.58246"
             style="font-style:normal;font-variant:normal;font-weight:normal;font-stretch:normal;letter-spacing:normal;word-spacing:normal;text-anchor:start;fill:none;stroke:#000000;stroke-width:0.86179489;stroke-linecap:butt;stroke-linejoin:miter;stroke-miterlimit:10.43299961;stroke-dasharray:none;stroke-dashoffset:0;stroke-opacity:1"
             id="path5667"
             inkscape:connector-curvature="0" />
        </g>
      </g>
      <g
         transform="translate(-933.92782,-181.56961)"
         style="display:none"
         inkscape:label="export"
         id="layer3">
        <rect
           inkscape:export-ydpi="1800"
           inkscape:export-xdpi="1800"
           inkscape:export-filename="/home/odo/Datos/Sync/edit/Clientes/Galpon/2014/logos_galpon/normal_transparente.png"
           y="697.33289"
           x="50.642315"
           height="50"
           width="150"
           id="rect4903"
           style="opacity:0.4;fill:#a40000;fill-opacity:1;stroke:none" />
        <rect
           inkscape:export-ydpi="1800"
           inkscape:export-xdpi="1800"
           inkscape:export-filename="/home/odo/Datos/Sync/edit/Clientes/Galpon/2014/logos_galpon/normal_FondoBlanco.png"
           style="opacity:0.4;fill:#a40000;fill-opacity:1;stroke:none"
           id="rect4925"
           width="150"
           height="50"
           x="50.642315"
           y="753.76147" />
        <rect
           inkscape:export-ydpi="1800"
           inkscape:export-xdpi="1800"
           inkscape:export-filename="/home/odo/Datos/Sync/edit/Clientes/Galpon/2014/logos_galpon/Blanco_transparente.png"
           y="810.90436"
           x="50.642315"
           height="50"
           width="150"
           id="rect4947"
           style="opacity:0.4;fill:#a40000;fill-opacity:1;stroke:none" />
        <rect
           inkscape:export-ydpi="1800"
           inkscape:export-xdpi="1800"
           inkscape:export-filename="/home/odo/Datos/Sync/edit/Clientes/Galpon/2014/logos_galpon/Oscuro_transparente.png"
           style="opacity:0.4;fill:#a40000;fill-opacity:1;stroke:none"
           id="rect4969"
           width="150"
           height="50"
           x="50.642315"
           y="868.76147" />
        <rect
           inkscape:export-ydpi="135.17"
           inkscape:export-xdpi="135.17"
           inkscape:export-filename="/home/odo/Datos/Sync/edit/Clientes/Galpon/2014/logos_galpon/ejemplos_de_uso.png"
           style="opacity:0.4;fill:#a40000;fill-opacity:1;stroke:none"
           id="rect5041"
           width="399.50769"
           height="598.51282"
           x="348.63733"
           y="16.924458" />
        <rect
           inkscape:export-ydpi="1800"
           inkscape:export-xdpi="1800"
           inkscape:export-filename="/home/odo/Datos/Sync/edit/Clientes/Galpon/2014/logos_galpon/alternativo.png"
           style="opacity:0.4;fill:#a40000;fill-opacity:1;stroke:none"
           id="rect5223"
           width="50"
           height="50"
           x="419.62463"
           y="683.4043" />
        <rect
           y="753.85742"
           x="418.32773"
           height="49.932922"
           width="218.91493"
           id="rect5603"
           style="opacity:0.4;fill:#a40000;fill-opacity:1;stroke:none"
           inkscape:export-filename="/home/odo/Datos/Sync/edit/Clientes/Galpon/2014/logos_galpon/alternativo_nuevo.png"
           inkscape:export-xdpi="1802.4181"
           inkscape:export-ydpi="1802.4181" />
        <rect
           style="opacity:0.4;fill:#a40000;fill-opacity:1;stroke:none"
           id="rect5605"
           width="237.18306"
           height="49.890728"
           x="418.65796"
           y="810.89655"
           inkscape:export-filename="/home/odo/Datos/Sync/edit/Clientes/Galpon/2014/logos_galpon/alternativo_viejo.png"
           inkscape:export-xdpi="1803.9423"
           inkscape:export-ydpi="1803.9423" />
      </g>
      <g
         transform="translate(0,2.5193707)"
         id="g7395">
        <g
           style="display:inline;fill:#000000;fill-opacity:1;stroke:none"
           transform="matrix(0.67211293,0,0,0.67211293,-164.07751,250.63917)"
           id="g5731">
          <path
             style="fill:#000000;fill-opacity:1;stroke:none"
             d="m 425.35063,1140.8498 c -0.0655,-0.065 -0.11905,-15.2887 -0.11905,-23.5714 l 0,-15.392 2.85714,0 2.85715,0 6.14573,-0.015 c 0.84479,0.01 1.69246,0.1127 2.37643,0.3204 2.96822,0.9016 5.23304,3.6616 6.14258,7.4855 0.3135,1.318 0.3588,1.9607 0.29246,4.1489 -0.0663,2.1861 -0.15263,2.8153 -0.5546,4.0412 -0.91501,2.7904 -2.82907,5.0223 -5.11689,6.1171 -1.09093,0.522 -1.28418,0.5554 -3.21429,0.5554 l -6.07142,0 0,2.4904 0,13.9388 -2.7381,0 c -1.50595,0 -2.79167,-0.054 -2.85714,-0.1191 z m 12.3415,-21.4234 c 1.62153,-0.9401 2.61287,-3.2757 2.60443,-6.1361 -0.0119,-4.0474 -1.84866,-6.707 -4.61855,-6.6878 -2.48431,0.017 -4.12157,1.8907 -4.57104,5.2305 -0.35259,2.6199 0.32249,5.5388 1.59006,6.875 1.31626,1.3875 3.33919,1.6785 4.9951,0.7184 z"
             id="path5733"
             inkscape:connector-curvature="0"
             sodipodi:nodetypes="csccccsscssccccscccssscc" />
          <path
             style="fill:#000000;fill-opacity:1;stroke:none"
             d="m 474.04574,1112.9556 0,-11.0692 2.80576,0 2.80576,0 6.50643,0 c 1.52357,0 2.66344,0.1535 3.76431,0.7171 1.58959,0.8138 2.73513,2.3252 3.19028,4.2092 0.27108,1.122 0.25669,0.6388 0.27267,9.1592 l 0.0146,8.5678 -2.8062,0 -2.8062,0 -0.0156,-7.8386 c -0.0156,-7.8312 7.5e-4,-7.3554 -0.3099,-8.1809 -0.36219,-0.9624 -1.05307,-1.5654 -2.09523,-1.8285 -0.33155,-0.084 -0.50891,-0.098 -1.20629,-0.099 -0.85679,-6e-4 -1.07366,0.028 -1.69807,0.2256 -0.61253,0.1937 -1.08013,0.4668 -1.54739,0.9039 -0.72358,0.6769 -1.1219,1.5338 -1.21812,2.6207 -0.026,0.2942 -0.0436,3.0827 -0.0439,6.9545 l -3.8e-4,7.242 -2.80633,0 -2.80633,0 0,-11.5841 z"
             id="path5735"
             inkscape:connector-curvature="0"
             sodipodi:nodetypes="cccccssscccsscccsccccccc" />
          <path
             style="fill:#000000;fill-opacity:1;stroke:none"
             d="m 457.67317,1124.5728 c -1.30274,-0.1781 -2.22279,-0.4541 -3.34375,-1.0031 -1.84135,-0.9018 -3.22778,-2.3092 -4.18341,-4.2466 -0.89415,-1.8127 -1.25236,-3.5711 -1.24777,-6.125 0.005,-2.9593 0.59226,-5.2051 1.85393,-7.0937 1.91051,-2.8598 4.87346,-4.3125 8.796,-4.3125 3.06513,0 5.54465,0.8702 7.35078,2.5799 1.75868,1.6647 2.74617,3.6644 3.18579,6.4513 0.13462,0.8534 0.18878,3.3132 0.0931,4.2271 -0.28885,2.7588 -1.21653,4.9145 -2.84032,6.6004 -1.61675,1.6786 -3.49258,2.5997 -5.95035,2.9218 -0.8794,0.1153 -2.87209,0.1155 -3.71398,4e-4 l 0,0 z m 3.76876,-4.1028 c 1.24211,-0.3442 2.31925,-1.3323 3.01092,-2.7619 0.59956,-1.2392 0.81581,-2.4545 0.76355,-4.2912 -0.0388,-1.3648 -0.15092,-2.0343 -0.5077,-3.0325 -0.26271,-0.735 -0.55858,-1.2685 -1.03819,-1.8721 -0.65328,-0.8221 -1.37345,-1.2902 -2.37002,-1.5406 -0.73567,-0.1849 -1.8786,-0.1447 -2.5545,0.09 -1.80139,0.625 -3.08396,2.4268 -3.4783,4.8866 -0.43953,2.7417 0.13657,5.4786 1.48962,7.0768 0.78925,0.9322 1.72534,1.446 2.91586,1.6003 0.39733,0.052 1.31234,-0.029 1.76876,-0.1553 l 0,0 z"
             id="path5737"
             inkscape:connector-curvature="0"
             sodipodi:nodetypes="csscsssscssccccscssscsscccc" />
          <path
             style="fill:#000000;fill-opacity:1;stroke:none"
             d="m 396.6531,1124.5397 c -1.90084,-0.2191 -3.04555,-0.6055 -4.15625,-1.7403 -1.12664,-1.1511 -1.72113,-2.7533 -1.71645,-4.6262 0.008,-3.3459 1.72019,-5.5567 5.02895,-6.4946 0.60981,-0.1729 3.31118,-0.6661 4.29829,-0.7848 1.02664,-0.1235 2.33657,-0.473 2.71932,-0.7255 0.80438,-0.5307 1.01364,-0.8781 1.01364,-1.6826 0,-0.613 -0.14659,-0.9985 -0.52273,-1.3747 -0.5815,-0.5815 -1.52327,-0.8181 -3.03977,-0.7636 -2.27748,0.082 -3.1602,0.6839 -3.4893,2.3806 l -0.10445,0.5385 -2.70312,2e-4 -2.70313,2e-4 0,-0.2125 c 0,-0.1169 0.0563,-0.5418 0.12507,-0.9441 0.56666,-3.3146 2.60038,-5.2387 6.07202,-5.9511 0.8432,-0.1731 1.88439,-0.2644 2.94176,-0.2728 1.08095,-0.01 2.17882,0.069 3.09937,0.2351 3.29122,0.5926 5.07639,1.9835 5.70902,4.6767 0.0526,0.224 0.0841,2.2778 0.11133,7.25 l 0.0379,6.9375 0.13833,0.4107 c 0.16334,0.485 0.72545,1.5614 1.0853,1.906 0.24425,0.2339 0.36738,0.5319 0.36738,0.875 l 0,0.3623 -3.06123,0 -3.06124,0 -0.18937,-0.3281 c -0.32797,-0.5683 -0.61584,-0.9259 -0.72896,-2.143 l -0.039,-0.4197 -0.53822,0.499 c -1.36596,1.2664 -2.93333,1.9698 -4.52193,2.2711 -0.51604,0.098 -1.76722,0.1674 -2.17255,0.1207 l 0,0 z m 4.09375,-4.553 c 1.09699,-0.2827 2.04432,-1.0467 2.51988,-2.0323 0.431,-0.8932 0.52205,-1.381 0.55706,-2.9841 l 0.0304,-1.3904 -0.4259,0.1603 c -0.55438,0.2087 -1.3717,0.4023 -3.02516,0.7165 -1.95832,0.3721 -2.87116,0.7214 -3.3719,1.2903 -0.50067,0.5688 -0.72138,1.4368 -0.57798,2.2731 0.19861,1.1582 0.91434,1.8227 2.21534,2.0569 0.44283,0.08 1.61626,0.029 2.07829,-0.09 z"
             id="path5739"
             inkscape:connector-curvature="0"
             sodipodi:nodetypes="cscssssscccccscsssccccsscccsscscccccscccsssccc" />
          <path
             style="fill:#000000;fill-opacity:1;stroke:none"
             d="m 414.42828,1109.1476 0,-20.4166 2.85818,0 2.85819,0 -0.0457,20.491 -0.0351,11.766 c 0,0.5142 0.34489,1.3201 0.98272,2.0794 0.7003,0.8336 0.55348,1.0356 0.55348,1.4723 l -6.12021,0 c -0.7658,-0.8041 -0.95117,-1.7809 -0.95117,-2.8777 z"
             id="path5741"
             inkscape:connector-curvature="0"
             sodipodi:nodetypes="ccccccscccc" />
          <circle
             r="2.625"
             cy="750.23718"
             cx="454.25"
             style="fill:#000000;fill-opacity:1;stroke:none"
             id="path5743"
             transform="translate(45.073221,371.64179)" />
          <text
             xml:space="preserve"
             style="font-style:normal;font-variant:normal;font-weight:bold;font-stretch:normal;font-size:25.62191772px;line-height:125%;font-family:GentiumAlt;-inkscape-font-specification:'GentiumAlt Bold';text-align:start;letter-spacing:0px;word-spacing:0px;writing-mode:lr-tb;text-anchor:start;fill:#000000;fill-opacity:1;stroke:none"
             x="503.73306"
             y="1124.5059"
             id="text5745"
             sodipodi:linespacing="125%"><tspan
               sodipodi:role="line"
               id="tspan5747"
               x="503.73306"
               y="1124.5059">org</tspan></text>
          <path
             style="fill:#000000;fill-opacity:1;stroke:none"
             d="m 377.04843,1128.0814 c -4.89154,1.7965 -10.42984,0.4537 -14.3149,-3.6475 -2.69301,-2.8429 -4.7476,-7.3304 -5.02922,-10.9846 -0.32095,-4.1643 1.06405,-8.0382 3.85155,-10.7729 2.67065,-2.6201 6.94327,-4.4486 10.43016,-4.4638 1.10571,-0.01 2.13865,0.1223 3.10918,0.3846 1.32457,0.3579 2.5329,0.9678 3.65136,1.8382 0.70679,0.55 1.66065,1.5591 2.14752,2.2719 l 0.25718,0.3764 -2.53404,1.2525 -2.53404,1.2525 -0.56179,-0.4665 c -1.57417,-1.3074 -3.54082,-1.8171 -5.42879,-1.4071 -1.37153,0.2978 -2.86809,1.0127 -3.97501,1.8988 -2.16756,1.735 -3.08698,4.5404 -2.50071,7.6301 0.25293,1.3331 0.51411,2.0364 1.43459,3.8633 0.80207,1.5914 0.97222,1.8773 1.50897,2.5307 1.40578,1.7115 2.87151,2.7817 4.60369,3.3614 3.60407,1.2062 7.26809,-0.3023 9.26063,-3.8125 0.5341,-0.9409 0.78958,-1.9515 0.77889,-3.0808 -0.007,-0.7684 -0.22589,-2.0192 -0.42021,-2.4042 l -0.0941,-0.1866 -2.94923,1.4885 -2.94923,1.4885 -1.12643,-2.2318 -1.12643,-2.2319 5.22093,-2.635 5.22094,-2.6351 3.56116,7.0559 3.41192,6.7602 -4.54441,2.2936 -1.13431,-2.2474 c -0.55644,2.5324 -2.0112,4.4713 -4.19929,5.9396 -0.37108,0.249 -0.91357,0.5523 -1.47652,0.834 -0.54265,0.2717 -1.10441,0.5232 -1.55001,0.6868 l 0,0 z"
             id="path5749"
             inkscape:connector-curvature="0"
             sodipodi:nodetypes="cssssssccccssssccsssscccccccccccssccc" />
        </g>
        <text
           xml:space="preserve"
           style="font-style:normal;font-weight:normal;font-size:9.46700478px;line-height:125%;font-family:Sans;letter-spacing:0px;word-spacing:0px;fill:#000000;fill-opacity:1;stroke:none;stroke-width:1px;stroke-linecap:butt;stroke-linejoin:miter;stroke-opacity:1"
           x="123.34092"
           y="1038.6102"
           id="text6477"
           sodipodi:linespacing="125%"><tspan
             sodipodi:role="line"
             id="tspan6479"
             x="123.34092"
             y="1038.6102"
             style="font-style:normal;font-variant:normal;font-weight:bold;font-stretch:normal;font-size:9.46700001px;line-height:125%;font-family:'Open Sans';-inkscape-font-specification:'Open Sans, Bold';text-align:start;writing-mode:lr-tb;text-anchor:start">CIF G-36.924.363</tspan></text>
        <text
           xml:space="preserve"
           style="font-style:normal;font-weight:normal;font-size:5.98199558px;line-height:125%;font-family:Sans;letter-spacing:0px;word-spacing:0px;fill:#000000;fill-opacity:1;stroke:none;stroke-width:1px;stroke-linecap:butt;stroke-linejoin:miter;stroke-opacity:1"
           x="75.961983"
           y="1026.181"
           id="text6481"
           sodipodi:linespacing="125%"><tspan
             sodipodi:role="line"
             id="tspan6483"
             x="75.961983"
             y="1026.181"
             style="font-style:normal;font-variant:normal;font-weight:bold;font-stretch:normal;font-family:'Open Sans';-inkscape-font-specification:'Open Sans Bold'">Grupo de Amigos de Linux de Pontevedra</tspan></text>
      </g>
    </g>
  </g>
</svg>
